<svg height="1024" width="1024" xmlns:xlink="http://www.w3.org/1999/xlink" xmlns="http://www.w3.org/2000/svg">
	<path d="M697.31 235.075C698.858 234.959 700.354 234.906 701.899 235.113C707.659 235.884 711.064 238.91 714.391 243.393C716.349 242.682 718.282 242.099 720.393 242.237C723.046 242.411 725.273 243.808 726.889 245.876C729.575 249.31 730.109 253.926 729.445 258.127C728.481 264.233 722.468 277.357 717.85 281.578C715.59 283.643 712.451 285.073 709.967 286.926C710.269 287.505 710.527 288.036 710.476 288.716C710.175 292.731 700.55 307.276 697.909 311.736C672.302 354.982 643.94 396.372 609.128 432.782C600.14 442.182 591.257 451.417 580.846 459.267C584.383 472.304 586.96 485.615 589.794 498.82C597 532.392 603.141 566.21 610.733 599.686C622.986 599.178 635.199 599.17 647.452 598.876L763.205 597.012C762.56 591.787 761.927 585.943 763.2 580.772C763.84 578.17 765.097 575.564 767.544 574.238C770.134 572.833 772.555 573.359 775.227 574.183C785.03 584.678 794.794 622.779 798.833 637.743C800.514 643.969 801.711 651.331 804.429 657.144C810.417 647.263 815.459 636.703 821.172 626.643C834.373 603.4 848.324 580.83 864.292 559.367C868.325 553.946 879.823 537.097 886.389 536.399C887.998 536.228 889.596 536.642 890.858 537.68C894.817 540.939 895.267 547.741 895.83 552.478C898.265 548.727 900.634 545.141 904.792 543.07C906.503 542.217 908.632 541.769 910.482 542.441C912.716 543.252 914.474 545.255 915.485 547.35C917.455 551.433 917.135 556.242 916.46 560.601C915.521 566.668 913.641 572.736 912.03 578.653C908.316 592.292 904.103 605.751 899.97 619.266C884.657 669.345 866.832 718.764 849.748 768.267C845.784 779.755 841.43 791.087 837.634 802.636C840.971 803.852 844.195 805.17 847.367 806.774C852.494 809.367 858.626 813.042 860.357 818.881C861.365 822.283 860.72 825.91 859.009 828.967C852.007 841.479 821.97 850.767 808.15 854.5C766.75 865.683 722.767 871.453 680.078 875.296Q628.486 879.601 576.74 881.207Q524.994 882.814 473.234 881.718C399.902 880.684 324.824 877.894 252.9 862.613C233.468 858.484 211.689 853.643 194.306 843.679C188.681 840.624 182.185 836.761 178.399 831.45C176.108 828.238 175.018 824.486 175.862 820.573C177.498 812.99 185.115 808.57 191.187 804.794C186.498 793.607 183.105 781.61 179.276 770.091L160.325 713.448C147.879 675.976 134.568 638.76 123.521 600.842C119.654 587.572 113.52 568.456 112.984 554.87C112.867 551.91 112.986 546.839 115.417 544.724C116.478 543.802 117.639 543.471 119.024 543.578C125.723 544.096 131.141 550.943 135.186 555.66C133.932 551.484 132.761 547.272 133.646 542.907C134.124 540.55 135.064 537.299 137.395 536.097C138.647 535.451 140.198 535.554 141.504 535.969C159.728 541.758 211.922 634.654 223.546 655.282C226.08 641.591 241.237 584.318 248.999 576.946C251.141 574.913 254.021 573.625 257.016 573.896C258.905 574.067 260.508 574.997 261.611 576.537C265.491 581.954 263.859 590.28 262.664 596.348Q339.336 598.325 416.024 599.517C419.848 579.348 423.649 559.129 427.121 538.895C431.625 512.655 435.849 486.256 441.419 460.219C432.689 454.478 424.163 448.638 416.234 441.814C378.996 409.769 348.92 361.893 323.109 320.352C318.556 313.024 313.862 305.781 309.219 298.509C306.279 293.902 302.952 289.26 300.704 284.268C298.933 283.227 297.131 282.175 295.597 280.797C289.435 275.26 284.845 265.748 284.636 257.436C284.565 254.627 285.234 251.555 287.371 249.568C288.465 248.55 289.408 248.474 290.824 248.498C295.882 248.582 294.748 245.139 298.331 243.755C300.183 243.04 302.612 243.862 304.392 242.993C306.759 241.837 308.441 238.936 310.87 237.567C314.47 235.54 320.354 235.946 324.185 237.099C330.44 238.981 336.655 244.102 339.512 249.975C342.978 257.101 341.95 265.721 339.358 272.943C367.328 305.204 399.177 334.017 431.195 362.158C435.169 357.276 440.174 352.849 446.015 350.353C454.095 346.9 461.446 347.902 469.323 351.032C470.846 345.416 473.075 340.25 476.257 335.362C483.177 324.732 494.298 316.77 506.757 314.173C517.825 311.866 530.647 313.653 540.173 319.924C549.753 326.229 555.069 335.1 557.353 346.183C561.473 345.707 565.373 345.421 569.471 346.237C577.792 347.895 582.657 353.14 587.174 359.842C597.489 348.759 609.185 338.694 619.808 327.843C638.662 308.585 656.636 288.615 675.008 268.911C674.426 261.92 674.43 255.219 677.61 248.757C681.751 240.343 688.991 237.803 697.31 235.075ZM527.129 405.641C526.751 407.803 526.458 410.025 525.918 412.152C522.211 416.149 517.724 418.157 512.234 418.309C507.918 418.429 503.535 417.212 500.343 414.204C497.652 411.669 496.932 409.399 496.848 405.809C491.503 404.677 486.692 403.255 481.726 400.963C444.507 383.78 390.781 331.857 361.736 301.831C353.446 293.262 345.624 284.305 337.47 275.626C334.404 280.772 330.051 284.185 324.217 285.728C318.309 287.292 311.366 286.977 305.397 286.01C311.16 297.274 321.158 310.759 328.131 321.875C353.845 362.866 382.371 408.896 419.411 440.381C427.1 446.917 435.256 452.473 443.79 457.82C447.148 454.974 453.773 448.107 458.135 447.58C458.236 449.368 456.838 450.925 455.701 452.23C452.727 455.644 448.021 458.431 444.338 461.14C442.779 468.863 440.622 476.961 439.833 484.791L419.694 595.993C419.431 597.385 419.511 598.187 420.146 599.425C421.146 599.49 421.043 599.656 421.91 599.007C423.489 585.09 423.863 571.622 435.81 562.247C442.025 557.37 449.642 555.594 457.396 556.604C465.452 557.654 472.264 561.946 477.124 568.368C484.698 578.378 482.422 586.519 482.565 597.929C501.353 597.822 520.155 598.162 538.939 597.906C540.205 583.809 538.057 571.129 550.28 561.017C556.012 556.275 564.137 553.91 571.49 554.777C579.457 555.717 587.514 560.11 592.367 566.515C599.505 575.937 599.143 588.71 599.984 599.958L607.057 599.882C602.423 578.698 598.528 557.367 594.226 536.115Q586.445 498.284 578.248 460.54C573.812 457.949 565.313 454.213 562.55 449.897L562.59 448.664C563.844 448.184 564.541 448.439 565.733 448.983C570.458 451.139 574.303 454.901 579.107 456.998C621.555 420.322 655.989 374.108 685.163 326.451C692.76 314.04 700.48 301.412 706.968 288.378C695.305 285.499 684.91 281.37 676.987 271.93C666.853 282.571 657.169 293.643 647.146 304.39Q625.752 327.364 603.167 349.169C579.956 371.655 557.605 393.28 527.129 405.641ZM227.991 818.846L320.407 818.88L345.971 818.873C352.34 818.864 359.222 819.191 365.492 818.049C371.165 817.016 382.21 811.448 387.857 808.836C395.221 805.918 403.072 803.555 410.262 800.324Q412.429 779.947 413.799 759.501C411.381 759.421 406.785 759.786 404.972 758.017C404.38 757.441 404.526 756.383 404.504 755.613C404.318 749.109 405.534 742.144 406.252 735.676L410.283 700.316C413.884 668.682 416.709 636.878 420.736 605.302C420.846 604.439 420.987 603.591 421.134 602.733Q372.003 602.272 322.887 600.924C302.883 600.494 282.783 600.731 262.802 599.812C259.06 615.876 256.953 632.813 254.295 649.113L236.532 762.407C233.686 781.108 231.762 800.323 227.991 818.846ZM717.822 600.712C691.076 601.531 664.264 601.815 637.507 602.363C625.202 602.615 612.571 602.292 600.313 603.228C600.905 620.568 615.882 752.72 612.86 757.745C609.932 759.704 605.836 759.094 602.458 759.059C602.678 766.917 603.365 774.749 603.826 782.594C604.169 788.439 604.239 794.391 604.82 800.209C611.934 803.346 619.546 805.448 626.816 808.229C634.486 811.163 644.993 816.82 652.675 818.202C657.935 819.149 664.317 818.429 669.726 818.421L796.831 818.49L776.476 681.131C772.322 654.275 767.542 627.45 763.82 600.536C748.534 600.25 733.1 600.174 717.822 600.712ZM831.645 821.598C813.063 821.41 794.467 821.967 775.88 821.952C741.511 821.924 707.178 821.504 672.803 821.835C662.222 821.936 651.7 823.013 641.152 823.035L321.581 822.127C308.166 822.121 195.427 823.02 190.85 821.25C190.044 817.293 191.347 812.467 191.724 808.458C186.908 811.584 180.005 815.761 178.881 821.886C178.37 824.675 179.342 827.269 180.978 829.503C187.608 838.549 203.866 844.595 214.113 848.442C255.985 863.597 307.994 869.301 352.29 873.196C417.406 878.922 483.307 879.643 548.63 878.485C624.519 877.141 703.832 873.437 778.28 857.815C798.633 853.544 819.159 848.926 838.112 840.133C846.291 836.338 853.966 831.935 858.092 823.579C857.108 818.368 855.221 815.758 850.789 812.718C846.348 809.673 841.03 807.587 835.991 805.761C833.924 811.091 832.534 815.961 831.645 821.598ZM553.187 759.035C553.432 765.981 553.193 791.122 555.461 796.051C559.178 797.689 595.394 797.801 601.12 797.294C600.392 784.609 599.557 771.797 599.418 759.096C584.035 759.013 568.549 759.487 553.187 759.035ZM501.633 390.931C501.027 397.353 501.207 403.842 500.405 410.232C504.456 413.505 508.5 415.24 513.843 414.597C516.35 414.295 519.133 413.543 521.305 412.232C525.198 407.529 522.964 397.638 522.976 391.745C515.718 392.235 508.788 392.665 501.633 390.931ZM486.871 374.44C492.644 382.141 498.16 386.846 507.923 388.274C511.369 388.777 514.703 388.638 518.169 388.428C527.802 386.128 536.572 380.154 541.793 371.575C543.146 369.351 543.976 366.882 543.185 364.311C542.728 362.827 541.461 360.769 539.999 360.13C537.616 359.089 524.038 360.343 517.17 358.16C508.866 355.521 503.529 348.835 497.202 346.05C490.809 352.824 489.876 355.508 489.295 364.769C486.374 362.528 484.002 360.443 480.062 360.913C478.091 361.148 476.35 362.119 475.225 363.773Q475.028 364.066 474.862 364.379Q474.696 364.691 474.564 365.019Q474.431 365.347 474.334 365.687Q474.236 366.027 474.175 366.375Q474.113 366.724 474.088 367.076Q474.063 367.429 474.075 367.783Q474.087 368.136 474.136 368.486Q474.185 368.837 474.27 369.18C474.769 371.179 476.162 372.678 477.93 373.666C480.824 375.282 483.726 374.785 486.871 374.44ZM458.625 796.365L460.225 796.217C461.445 794.342 462.299 764.921 462.494 759.617C456.706 758.791 450.693 759.079 444.856 759.08L418.208 759.107C416.206 761.886 414.53 791.198 414.46 796.477C429.067 795.827 444 796.204 458.625 796.365ZM300.374 246.25C297.463 249.036 296.536 251.374 296.409 255.414C296.29 259.212 297.243 264.033 299.955 266.886C300.801 267.775 301.731 268.135 302.846 268.542L306.377 267.976C305.116 265.073 303.654 262.232 303.147 259.075C302.569 255.479 304.42 249.62 302.18 246.716L300.374 246.25ZM813.924 702.912L814.694 703.406C816.466 701.189 823.095 684.806 824.761 681.04Q834.876 657.964 846.26 635.488Q857.644 613.011 870.261 591.203Q876.078 581.261 882.471 571.679C885.975 566.453 889.8 561.314 892.81 555.792C892.445 551.392 891.987 542.837 888.192 539.993C887.431 539.423 886.629 539.39 885.724 539.299C878.199 546.331 871.757 555.252 865.608 563.485C851.084 582.93 838.389 603.079 826.456 624.201C819.292 636.882 812.963 650.228 804.892 662.36L813.924 702.912ZM799.57 818.581Q812.346 818.244 825.125 818.123C826.521 818.05 827.794 818.261 828.951 817.44C831.261 788.6 790.373 595.984 774.282 578.044C772.985 576.599 771.933 576.541 770.086 576.467C769.963 576.462 769.841 576.468 769.719 576.469C767.396 578.429 766.231 580.098 765.973 583.186C764.951 595.449 771.808 629.082 774.028 642.608Q784.172 706.683 793.148 770.932C795.267 786.573 799.306 802.793 799.57 818.581ZM294.152 264.242C293.38 261.297 293.617 252.577 291.809 251.241C291.646 251.121 291.033 250.854 290.826 250.761C289.457 251.458 289.314 251.436 288.849 252.983C287.09 258.831 289.445 266.552 292.387 271.685C295.724 277.505 300.724 281.16 307.201 282.816C314.081 284.575 322.457 283.94 328.539 280.086C333.611 276.871 336.826 271.542 338.015 265.719C339.182 260.01 338.595 254.04 335.149 249.207C331.525 244.125 325.254 240.09 319.066 239.238C318.896 239.215 318.726 239.196 318.556 239.175C314.956 239.694 311.596 240.175 309.241 243.239C305.903 247.581 306.221 254.443 307.072 259.611C307.436 261.819 308.155 265.274 310.048 266.713C311.123 267.53 312.189 267.69 313.509 267.589L314.057 266.763L313.857 266.151C311.997 260.305 310.728 251.858 313.811 246.282C314.818 244.462 316.254 243.235 318.276 242.686C321.339 241.853 323.81 243.269 326.371 244.807C326.521 244.897 326.667 244.994 326.815 245.088C327.946 251.29 330.164 260.848 326.519 266.484C325.491 268.074 323.74 269.418 321.843 269.748C319.869 270.092 317.795 269.55 315.781 269.819C310.615 270.509 302.45 274.054 297.873 270.465C296.004 269 294.847 266.459 294.152 264.242ZM222.115 660.515C212.563 642.115 155.799 543.136 140.751 539.421C140.128 539.267 139.681 539.259 139.062 539.217C136.304 543.404 136.665 547.767 137.628 552.494C138.391 556.239 139.513 560.132 141.155 563.589C143.883 569.334 148.356 574.667 151.747 580.075Q161.099 595.088 169.397 610.709Q186.204 641.568 200.353 673.732C204.495 683.073 208.952 692.599 212.226 702.268L213.993 694.603C216.389 683.194 219.206 671.804 222.115 660.515ZM719.962 270.135C716.143 269.8 712.382 269.136 708.576 268.782C701.526 268.126 691.991 268.677 686.948 262.734C685.707 261.272 684.424 258.403 684.501 256.446C684.56 254.967 684.747 254.81 685.809 253.947C689.399 255.113 689.25 266.369 697.639 263.603C698.613 262.76 698.917 262.207 699.106 260.914C699.796 256.215 696.332 248.981 693.447 245.576C691.863 243.706 690.15 242.244 687.715 241.729C681.739 246.749 678.701 253.094 678.004 260.802C677.817 262.877 677.828 264.943 677.877 267.024C682.558 274.683 691.65 280.899 700.303 283.131C703.954 284.073 708.432 284.276 711.694 282.049C715.055 279.754 719.59 274.912 720.751 270.971C720.29 270.163 720.606 270.379 719.962 270.135ZM321.674 266.042C324.401 263.49 324.645 261.486 324.774 257.794C324.886 254.611 324.526 249.079 321.957 246.826C320.99 245.977 319.93 245.936 318.711 245.871C315.595 249.174 315.19 253.605 315.382 257.986C315.483 260.277 315.946 264.06 317.964 265.561C319.228 266.502 320.253 266.183 321.674 266.042ZM211.182 707.586C202.357 688.408 194.407 668.852 185.406 649.746Q175.634 629.228 164.564 609.381Q153.493 589.533 141.169 570.439C136.679 563.613 129.811 550.925 121.846 547.829C120.575 547.334 119.246 547.338 117.908 547.381C116.635 550.225 116.149 552.728 116.43 555.847C117.737 570.334 123.314 588.037 127.466 602.085C136.804 633.675 147.621 664.777 158.132 695.985L181.32 764.909C185.209 776.507 188.686 788.409 193.031 799.829C193.135 800.103 193.246 800.375 193.354 800.648C193.841 795.739 194.943 790.958 195.64 786.087Q200.19 760.436 205.25 734.88C207.14 725.776 209.58 716.743 211.182 707.586ZM194.228 818.497L203.125 818.554Q213.829 818.799 224.535 818.87C226.883 798.211 230.782 777.522 234.005 756.975L249.918 655.581Q253.837 632 257.51 608.379C258.522 601.511 259.864 594.422 260.329 587.501C260.51 584.806 260.465 581.065 258.548 578.902C256.898 577.039 255.31 576.958 253.01 576.878C234.953 595.954 197.476 784.365 194.228 818.497ZM906.527 545.974C899.572 549.681 894.655 560.105 890.417 566.453C870.776 595.869 854.047 626.169 838.908 658.125Q831.659 673.747 824.767 689.53C821.855 696.026 819.013 702.846 815.321 708.927Q820.781 736.082 825.634 763.351C827.654 774.85 829.917 786.777 830.689 798.436C831.017 800.841 831.281 803.271 831.792 805.645C835.737 800.801 846.181 767.689 848.998 759.694C859.49 729.912 915.894 571.9 913.665 552.445C913.433 550.415 912.844 548.432 911.203 547.096C909.776 545.935 908.25 545.993 906.527 545.974ZM717.775 245.467C715.637 250.813 722.262 258.506 715.158 265.893C717.408 266.649 720.094 266.451 722.455 266.444C725.063 261.992 727.232 256.633 725.993 251.387C725.426 248.985 723.921 247.083 721.743 245.929C720.646 245.348 718.986 245.475 717.775 245.467ZM693.301 240.383C697.499 244.967 700.95 249.498 701.814 255.905C702.003 257.298 701.305 264.009 702.047 264.628C702.328 264.862 702.776 264.694 703.141 264.728C704.875 263.54 705.215 261.531 705.6 259.583C706.041 257.351 706.236 254.997 706.081 252.729C705.895 249.996 703.962 246.647 705.597 244.173L706.602 243.925C707.441 244.668 707.683 245.168 708.044 246.224C708.788 249.198 709.78 252.372 709.7 255.457C709.632 258.095 708.217 262.104 709.13 264.417C709.893 264.688 709.987 264.917 710.791 264.538C712.806 263.588 714.088 261.282 714.719 259.228C715.935 255.273 715.268 250.721 713.288 247.127C711.457 243.805 707.405 239.807 703.647 238.828C701.471 238.261 699.192 238.432 696.971 238.578L693.301 240.383ZM539.999 631.869C532.488 631.303 524.85 631.581 517.319 631.593L482.515 631.706C481.47 632.22 481.12 632.203 480.762 633.381C479.1 638.843 479.935 650.285 479.773 656.503L478.135 723.37C477.864 733.295 478.016 743.399 477.289 753.289C477.19 754.636 477.001 756.98 476.136 758.101C476.001 758.275 475.802 758.39 475.617 758.51C473.246 760.048 468.919 759.557 466.168 759.587C465.053 767.113 465.022 774.893 464.61 782.491C463.949 794.663 463.156 806.842 462.95 819.033L531.25 818.97L552.013 818.97C551.77 799.002 550.218 779.069 549.856 759.1C547.59 759.092 543.054 759.552 541.309 757.966C540.901 757.595 540.884 757.073 540.788 756.557C539.25 748.298 540.386 729.482 540.361 720.123L539.999 631.869Z"></path>
	<path d="M520.643 366.767C521.043 366.767 521.705 366.756 522.083 366.815C522.79 366.925 523.302 367.009 523.619 367.672C524.502 369.522 524.029 372.107 523.261 373.93C522.043 376.825 519.781 379.154 516.804 380.224C513.439 381.433 509.513 380.799 506.313 379.401C502.063 375.613 501.578 372.362 501.144 366.945L520.643 366.767Z"></path>
	<path d="M183.64 251.96C189.603 253.345 263.223 291.658 269.62 296.605C268.265 300.092 266.617 302.882 264.323 305.845C268.886 306.44 272.562 307.136 275.565 311.054C277.438 313.497 277.936 316.48 277.446 319.478C276.392 325.927 271.518 331.124 266.303 334.695C255.913 341.813 244.352 342.817 232.132 342.412C220.157 350.511 208.322 356.927 193.317 353.973Q192.546 353.825 191.781 353.652C184.205 369.775 179.501 386.828 173.191 403.407C176.976 405.671 180.881 409.318 183.136 413.129C184.762 415.876 188.42 422.684 187.316 425.769C187.094 426.392 186.534 426.374 185.968 426.576C182.179 425.803 169.355 418.469 165.044 416.307C148.226 407.873 129.799 399.187 113.59 389.87C116.456 388.014 119.299 386.623 122.602 385.748C129.311 383.97 137.264 384.287 143.336 387.831C153.065 378.402 161.895 368.659 170.426 358.127C173.313 354.562 176.56 350.878 179.014 347.005C168.705 335.46 163.821 324.37 164.056 308.838C155.145 300.388 149.248 289.681 148.852 277.208C148.646 270.713 149.921 263.298 154.645 258.499C156.775 256.336 159.556 255.078 162.616 255.178C168.187 255.361 173.443 259.352 177.359 263.01C179.311 259.234 181.196 255.45 183.64 251.96ZM232.503 337.226C243.278 326.646 258.628 311.89 265.37 298.212C247.802 287.896 229.421 278.673 211.325 269.305C202.761 264.872 193.212 260.841 185.305 255.355C174.982 276.434 161.34 301.513 169.581 325.562C172.844 335.084 178.599 343.933 187.915 348.358C196.374 352.375 205.134 352.287 213.831 349.134C220.893 346.574 226.791 341.994 232.503 337.226ZM262.368 308.914C253.973 320.084 245.159 329.719 235.174 339.483C239.514 339.433 243.591 338.823 247.876 338.266C256.997 336.196 266.836 332.718 272.11 324.386C273.176 322.701 273.737 320.989 274.275 319.086L274.463 318.437C274.499 318.306 274.533 318.175 274.568 318.045C273.76 314.938 273.075 311.893 270.018 310.223C267.769 308.995 264.869 308.944 262.368 308.914ZM159.864 258.607C155.391 261.937 153.27 266.078 152.458 271.585C150.972 281.667 154.694 292.56 160.606 300.675C161.555 301.977 162.451 303.124 163.932 303.831C164.737 303.015 164.705 301.382 164.893 300.246C166.74 287.763 170.91 277.09 176.099 265.699C171.024 261.804 166.723 257.756 159.864 258.607ZM181.948 348.642C171.508 363.081 160.087 378.269 146.017 389.398C154.154 393.818 162.714 397.586 170.69 402.282C174.389 385.191 181.725 368.366 188.589 352.333C186.327 351.199 184.146 349.896 181.948 348.642Z"></path>
	<path d="M837.016 251.889C837.157 251.915 837.305 251.916 837.439 251.966C840.203 252.985 842.579 260.642 844.016 263.378C848.328 260.472 853.658 255.979 859.043 255.886C862.133 255.832 864.66 257.338 866.74 259.516C871.265 264.252 873.143 270.419 873.006 276.872C872.748 289.056 866.699 300.245 858.063 308.521C858.029 311.354 858.013 314.196 857.882 317.026C857.3 329.624 853.187 338.382 843.865 346.824C848.864 351.396 853.039 357.604 857.284 362.918C864.255 371.645 871.284 380.196 878.91 388.368C883.26 386.135 887.576 384.379 892.567 384.347C898.443 384.309 904.406 386.286 908.574 390.491C902.374 395.132 844.325 423.434 837.871 424.871C837.754 424.738 837.616 424.62 837.521 424.471C836.553 422.962 836.854 420.17 837.167 418.481C838.502 411.264 843.66 405.459 849.587 401.563C845.488 391.604 842.343 380.955 838.618 370.817C836.525 365.118 833.113 358.63 831.869 352.811C813.018 354.085 805.891 351.082 790.035 341.473C778.499 344.038 768.063 343.513 757.506 337.727C751.324 334.338 745.307 328.784 743.472 321.768C742.584 318.372 742.824 314.782 744.683 311.746C747.471 307.194 751.976 305.088 756.904 303.746C755.545 301.351 753.858 299.023 754.06 296.167C755.661 293.501 826.62 257.667 837.016 251.889ZM756.974 297.962C765.515 311.92 776.828 326.881 790.014 336.625C800.726 344.746 813.174 351.711 827.109 349.86C835.152 348.792 842.788 344.651 847.752 338.179C854.875 328.892 855.678 316.532 853.967 305.365C851.699 290.562 846.343 276.721 840.284 263.116C839.387 261.103 838.269 257.633 836.801 256.009C810.398 270.23 782.757 282.68 756.974 297.962ZM757.689 307.052C753.711 308.08 749.183 309.996 746.995 313.717C745.712 315.901 745.717 318.279 746.419 320.66C748.402 327.383 754.617 332.242 760.646 335.292Q762.479 336.24 764.395 337.006Q766.31 337.772 768.291 338.35Q770.272 338.927 772.3 339.311Q774.327 339.694 776.382 339.88C780.056 340.036 783.443 339.756 787.068 339.11C778.299 331.859 770.125 323.359 763.706 313.963C762.605 312.353 759.663 307.287 757.689 307.052ZM858.317 258.97C853.685 260.983 849.549 263.392 845.438 266.318C851.241 280.837 854.49 289.214 857.51 305.001C864.78 296.227 870.653 285.314 869.602 273.553C869.213 269.204 868.154 264.815 864.712 261.857C862.873 260.277 860.756 259.175 858.317 258.97ZM864.624 395.318C868.584 393.513 872.601 391.781 876.459 389.766C867.402 383.446 850.105 358.553 841.017 348.581L834.992 351.342L846.127 381.329C848.473 387.637 851.184 394.096 852.818 400.622L864.624 395.318Z"></path>
	<path d="M728.039 367.254C730.87 370.06 734.923 382.602 736.665 386.782C741.022 397.234 746.53 406.506 752.346 416.166C752.182 416.612 752.026 417.061 751.845 417.501C749.866 422.3 747.278 426.946 745.091 431.669C742.687 436.864 740.537 442.768 737.596 447.648C736.938 448.74 736.706 448.998 735.579 449.473C728.888 442.518 714.013 415.87 710.342 406.346Q715.829 395.404 720.491 384.085C722.763 378.699 724.768 372.072 728.039 367.254ZM714.102 406.374C718.983 417.57 728.358 434.393 735.441 444.095C738.278 440.467 739.921 434.416 741.823 430.154Q744.985 423.098 748.684 416.307C740.347 403.042 734.191 389.198 728.116 374.801C723.587 385.385 719.127 396.013 714.102 406.374Z"></path>
	<path d="M293.389 395.195C296.938 397.184 301.77 407.763 307.386 411.784C313.295 416.014 323.102 416.254 326.948 418.895C326.706 420.716 321.616 422.816 319.97 424.477C313.728 430.78 313.078 440.4 313.161 448.746C313.177 450.448 312.807 450.936 311.617 452.121C305.007 444.936 298.777 436.946 288.342 435.334C285.152 434.841 281.978 435.326 278.78 434.606L278.459 434.071C280.071 429.248 288.732 422.72 291.594 415.576C294.255 408.932 291.636 398.877 293.389 395.195ZM284.658 431.451C294.378 433.344 301.334 436.154 308.604 443.044L309.324 443.27C309.784 441.16 309.733 439.01 310.171 436.903C311.524 430.395 314.561 424.94 319.345 420.351C309.647 417.707 303.287 413.771 297.034 405.763C295.214 416.335 291.67 423.317 284.658 431.451Z"></path>
	<path d="M528.75 211.292C529.146 211.597 529.535 211.938 529.859 212.32C533.386 216.484 535.829 223.14 535.049 228.57C534.078 235.327 528.664 241.067 523.294 244.895C519.329 247.72 512.286 251.542 507.29 250.713C505.141 246.31 498.932 235.774 499.112 231.376C499.165 230.093 509.367 227.703 511.431 226.77C519.439 223.146 522.658 216.982 528.75 211.292ZM502.791 232.88C504.377 237.511 506.686 241.771 509.031 246.055C510.589 246.878 512.887 246.257 514.504 245.787C520.899 243.929 527.75 237.595 530.654 231.614C531.386 230.106 531.868 228.454 532.361 226.855C531.454 223.572 530.553 220.333 528.48 217.56L528.069 217.364C521.186 225.781 513.841 231.33 502.791 232.88Z"></path>
	<path d="M795.117 488.959Q795.601 488.882 796.089 488.838Q796.577 488.793 797.067 488.781Q797.557 488.769 798.047 488.789Q798.537 488.809 799.024 488.862Q799.512 488.915 799.994 488.999Q800.477 489.084 800.953 489.2Q801.429 489.317 801.897 489.464Q802.364 489.612 802.821 489.79Q803.277 489.968 803.721 490.176Q804.165 490.384 804.594 490.621Q805.023 490.858 805.436 491.123Q805.848 491.388 806.242 491.679Q806.637 491.97 807.01 492.287Q807.385 492.604 807.737 492.945Q808.089 493.286 808.418 493.649Q808.747 494.013 809.051 494.397Q809.355 494.781 809.633 495.185Q809.911 495.589 810.162 496.01Q810.413 496.431 810.636 496.867Q810.858 497.304 811.051 497.755Q811.244 498.205 811.407 498.667Q811.57 499.13 811.702 499.602Q811.834 500.074 811.934 500.554Q812.035 501.033 812.103 501.519Q812.172 502.004 812.208 502.493Q812.245 502.982 812.249 503.472Q812.253 503.962 812.224 504.451Q812.196 504.94 812.135 505.427Q812.074 505.913 811.981 506.394Q811.888 506.876 811.764 507.35Q811.64 507.824 811.484 508.289Q811.329 508.753 811.143 509.207Q810.957 509.661 810.742 510.101Q810.526 510.541 810.282 510.966Q810.038 511.391 809.767 511.799Q809.495 512.207 809.197 512.596Q808.899 512.986 808.576 513.354Q808.253 513.723 807.906 514.069Q807.559 514.416 807.191 514.738Q806.822 515.061 806.432 515.359Q806.043 515.657 805.635 515.928Q805.226 516.199 804.801 516.443Q804.376 516.687 803.935 516.902Q803.495 517.117 803.041 517.302Q802.588 517.488 802.123 517.643Q801.658 517.798 801.183 517.922Q800.709 518.046 800.228 518.138Q799.746 518.231 799.26 518.291Q798.903 518.335 798.544 518.362Q798.186 518.389 797.826 518.399Q797.466 518.408 797.107 518.4Q796.747 518.392 796.388 518.367Q796.029 518.341 795.672 518.299Q795.315 518.256 794.96 518.196Q794.605 518.136 794.254 518.058Q793.903 517.981 793.555 517.887Q793.208 517.793 792.866 517.682Q792.524 517.571 792.187 517.443Q791.851 517.316 791.521 517.172Q791.191 517.029 790.869 516.869Q790.546 516.71 790.232 516.535Q789.918 516.36 789.612 516.17Q789.307 515.98 789.011 515.775Q788.715 515.571 788.429 515.352Q788.143 515.133 787.869 514.901Q787.594 514.668 787.331 514.423Q787.068 514.178 786.817 513.92Q786.566 513.662 786.328 513.392Q786.09 513.122 785.865 512.841Q785.641 512.561 785.43 512.269Q785.219 511.977 785.023 511.676Q784.826 511.375 784.645 511.064Q784.464 510.753 784.297 510.434Q784.131 510.115 783.98 509.788Q783.83 509.462 783.695 509.128Q783.561 508.794 783.443 508.454Q783.325 508.115 783.223 507.769Q783.122 507.424 783.037 507.075Q782.952 506.725 782.885 506.372Q782.817 506.018 782.767 505.662Q782.717 505.306 782.684 504.948Q782.651 504.589 782.635 504.23Q782.62 503.87 782.622 503.511Q782.624 503.151 782.643 502.792Q782.662 502.432 782.699 502.075Q782.736 501.717 782.79 501.361Q782.844 501.005 782.916 500.653Q782.987 500.3 783.075 499.951Q783.164 499.603 783.269 499.259Q783.374 498.915 783.496 498.576Q783.618 498.238 783.756 497.905Q783.894 497.573 784.048 497.248Q784.202 496.923 784.372 496.606Q784.541 496.288 784.726 495.98Q784.911 495.671 785.11 495.372Q785.31 495.072 785.524 494.783Q785.738 494.494 785.965 494.215Q786.193 493.937 786.434 493.67Q786.675 493.402 786.929 493.147Q787.182 492.892 787.448 492.65Q787.714 492.407 787.991 492.178Q788.268 491.948 788.556 491.733Q788.844 491.517 789.142 491.316Q789.44 491.114 789.748 490.927Q790.055 490.741 790.371 490.569Q790.688 490.398 791.012 490.242Q791.336 490.086 791.667 489.946Q791.999 489.806 792.336 489.682Q792.674 489.558 793.018 489.451Q793.361 489.343 793.709 489.253Q794.057 489.162 794.41 489.089Q794.762 489.015 795.117 488.959ZM798.772 515.14Q799.013 515.112 799.253 515.075Q799.493 515.037 799.731 514.989Q799.969 514.941 800.204 514.884Q800.44 514.826 800.673 514.758Q800.906 514.691 801.137 514.614Q801.367 514.537 801.593 514.45Q801.82 514.363 802.043 514.267Q802.266 514.171 802.484 514.066Q802.703 513.961 802.917 513.846Q803.131 513.732 803.34 513.609Q803.55 513.486 803.753 513.354Q803.957 513.222 804.155 513.082Q804.354 512.942 804.546 512.793Q804.738 512.645 804.923 512.489Q805.109 512.333 805.288 512.169Q805.467 512.005 805.639 511.834Q805.811 511.662 805.976 511.484Q806.141 511.306 806.298 511.121Q806.455 510.936 806.605 510.745Q806.754 510.553 806.895 510.356Q807.036 510.159 807.169 509.955Q807.302 509.752 807.426 509.544Q807.55 509.335 807.666 509.122Q807.781 508.908 807.887 508.69Q807.994 508.472 808.091 508.25Q808.188 508.027 808.276 507.801Q808.364 507.575 808.442 507.345Q808.52 507.115 808.589 506.882Q808.658 506.65 808.716 506.414Q808.775 506.179 808.824 505.941Q808.873 505.703 808.912 505.464Q808.951 505.224 808.98 504.983Q809.056 504.349 809.062 503.711Q809.069 503.073 809.005 502.438Q808.941 501.802 808.808 501.178Q808.675 500.554 808.475 499.948Q808.274 499.342 808.008 498.761Q807.743 498.181 807.415 497.633Q807.087 497.086 806.702 496.577Q806.316 496.068 805.877 495.605Q805.438 495.142 804.951 494.729Q804.463 494.317 803.934 493.96Q803.404 493.604 802.839 493.307Q802.274 493.011 801.679 492.778Q801.085 492.545 800.468 492.379Q799.852 492.213 799.221 492.115Q798.59 492.018 797.953 491.99Q797.315 491.962 796.678 492.004Q796.292 492.029 795.91 492.08Q795.527 492.131 795.148 492.208Q794.77 492.284 794.397 492.385Q794.024 492.487 793.659 492.612Q793.294 492.738 792.938 492.888Q792.582 493.038 792.237 493.211Q791.891 493.384 791.558 493.58Q791.225 493.775 790.906 493.993Q790.587 494.21 790.283 494.448Q789.978 494.686 789.691 494.944Q789.403 495.201 789.133 495.478Q788.863 495.754 788.612 496.048Q788.361 496.341 788.13 496.651Q787.899 496.96 787.69 497.285Q787.48 497.609 787.292 497.946Q787.104 498.284 786.939 498.633Q786.774 498.982 786.632 499.342Q786.491 499.701 786.374 500.069Q786.256 500.437 786.164 500.812Q786.071 501.187 786.004 501.567Q785.936 501.948 785.894 502.332Q785.852 502.716 785.836 503.102Q785.819 503.487 785.828 503.874Q785.837 504.26 785.872 504.645Q785.907 505.029 785.967 505.411Q786.028 505.792 786.113 506.169Q786.199 506.546 786.309 506.916Q786.419 507.286 786.554 507.648Q786.689 508.01 786.847 508.362Q787.005 508.715 787.187 509.056Q787.368 509.397 787.572 509.725Q787.776 510.053 788.001 510.367Q788.226 510.681 788.471 510.979Q788.717 511.277 788.982 511.559Q789.246 511.84 789.529 512.103Q789.812 512.366 790.111 512.61Q790.411 512.854 790.726 513.077Q791.041 513.3 791.37 513.502Q791.7 513.704 792.042 513.884Q792.384 514.063 792.737 514.22Q793.09 514.376 793.453 514.509Q793.815 514.642 794.186 514.75Q794.557 514.858 794.934 514.942Q795.311 515.025 795.693 515.083Q796.075 515.142 796.46 515.174Q796.844 515.207 797.231 515.214Q797.617 515.221 798.002 515.203Q798.388 515.184 798.772 515.14Z"></path>
	<path d="M138.217 452.119C142.822 453.814 145.621 460.082 149.746 462.868C153.675 465.522 158.314 466.211 162.325 468.462C163.105 468.899 162.817 468.696 163.132 469.735C161.547 473.741 152.095 477.778 148.416 481.266L147.923 481.742C145.466 484.402 144.125 487.445 140.543 488.806C139.557 488.495 139.315 488.451 138.792 487.474C137.772 485.568 137.403 482.933 136.777 480.848C135.27 475.822 132.777 471.907 129.776 467.655C133.779 462.485 135.982 458.272 138.217 452.119ZM134.153 467.923C137.539 473.295 139.902 478.05 141.675 484.132C143.605 481.966 145.478 479.632 147.564 477.627C151.092 474.827 154.638 472.537 158.596 470.395C150.682 467.446 145.221 464.52 140.037 457.754C138.404 461.502 136.643 464.667 134.153 467.923Z"></path>
	<path d="M592.655 159.669C592.875 159.768 593.11 159.838 593.315 159.964C596.852 162.145 606.31 183.13 607.773 187.847C604.069 188.052 600.335 188.063 596.625 188.162C591.807 188.225 585.806 189.09 581.189 188.052C581.436 182.923 589.667 163.864 592.655 159.669ZM585.52 184.819L594.125 184.735L602.804 184.509C600.623 180.042 596.252 169.251 593.204 165.847L585.52 184.819Z"></path>
	<path d="M240.215 491.095Q240.486 491.066 240.759 491.05Q241.031 491.034 241.304 491.031Q241.577 491.029 241.849 491.039Q242.122 491.05 242.394 491.074Q242.666 491.098 242.936 491.136Q243.206 491.173 243.474 491.223Q243.743 491.274 244.008 491.337Q244.273 491.401 244.535 491.477Q244.797 491.554 245.055 491.643Q245.313 491.732 245.566 491.834Q245.819 491.935 246.067 492.049Q246.315 492.163 246.557 492.289Q246.799 492.415 247.035 492.552Q247.271 492.69 247.499 492.839Q247.728 492.988 247.949 493.148Q248.17 493.308 248.383 493.478Q248.596 493.649 248.801 493.829Q249.005 494.01 249.2 494.201Q249.396 494.391 249.582 494.591Q249.767 494.791 249.943 495Q250.119 495.208 250.284 495.425Q250.45 495.642 250.604 495.867Q250.759 496.092 250.902 496.324Q251.046 496.556 251.178 496.795Q251.309 497.034 251.43 497.279Q251.55 497.524 251.657 497.775Q251.765 498.025 251.861 498.281Q251.957 498.536 252.039 498.796Q252.122 499.056 252.193 499.32Q252.263 499.584 252.32 499.851Q252.377 500.117 252.421 500.387Q252.465 500.656 252.496 500.927Q252.527 501.198 252.544 501.47Q252.562 501.743 252.566 502.016Q252.57 502.289 252.561 502.561Q252.552 502.834 252.53 503.106Q252.507 503.378 252.472 503.648Q252.436 503.919 252.387 504.187Q252.338 504.456 252.276 504.722Q252.214 504.987 252.139 505.25Q252.065 505.512 251.977 505.771Q251.889 506.029 251.789 506.283Q251.689 506.537 251.577 506.786Q251.464 507.034 251.34 507.277Q251.215 507.52 251.079 507.756Q250.943 507.993 250.795 508.222Q250.648 508.452 250.489 508.674Q250.331 508.896 250.161 509.11Q249.992 509.324 249.812 509.53Q249.633 509.735 249.443 509.932Q249.254 510.128 249.055 510.315Q248.857 510.502 248.649 510.679Q248.441 510.856 248.225 511.023Q248.009 511.19 247.785 511.345Q247.561 511.501 247.33 511.646Q247.099 511.791 246.86 511.924Q246.622 512.058 246.378 512.179Q246.134 512.301 245.884 512.41Q245.634 512.519 245.379 512.617Q245.124 512.714 244.864 512.798Q244.605 512.883 244.341 512.954Q244.078 513.026 243.812 513.085Q243.545 513.143 243.276 513.189Q243.007 513.235 242.736 513.267Q242.463 513.3 242.189 513.319Q241.914 513.338 241.64 513.344Q241.365 513.349 241.09 513.341Q240.815 513.334 240.541 513.312Q240.267 513.291 239.994 513.256Q239.721 513.221 239.451 513.173Q239.18 513.124 238.912 513.063Q238.644 513.001 238.38 512.927Q238.115 512.852 237.854 512.764Q237.594 512.677 237.338 512.576Q237.082 512.476 236.831 512.363Q236.58 512.25 236.336 512.125Q236.091 512 235.852 511.863Q235.614 511.726 235.383 511.578Q235.151 511.429 234.927 511.27Q234.704 511.11 234.488 510.939Q234.272 510.769 234.065 510.588Q233.859 510.407 233.661 510.216Q233.463 510.025 233.275 509.824Q233.087 509.624 232.909 509.415Q232.73 509.205 232.563 508.987Q232.395 508.769 232.239 508.543Q232.082 508.317 231.937 508.084Q231.792 507.85 231.658 507.61Q231.525 507.37 231.403 507.123Q231.281 506.876 231.172 506.624Q231.063 506.372 230.966 506.115Q230.869 505.857 230.785 505.595Q230.701 505.334 230.63 505.068Q230.56 504.802 230.502 504.534Q230.444 504.265 230.4 503.993Q230.355 503.722 230.324 503.449Q230.293 503.176 230.275 502.901Q230.258 502.627 230.254 502.352Q230.25 502.077 230.259 501.803Q230.269 501.528 230.292 501.254Q230.315 500.98 230.351 500.707Q230.388 500.435 230.438 500.164Q230.488 499.894 230.551 499.626Q230.614 499.359 230.69 499.095Q230.766 498.831 230.855 498.571Q230.945 498.31 231.046 498.055Q231.148 497.8 231.262 497.55Q231.377 497.3 231.503 497.055Q231.63 496.811 231.768 496.574Q231.906 496.336 232.056 496.106Q232.206 495.875 232.367 495.652Q232.528 495.43 232.7 495.215Q232.872 495 233.054 494.794Q233.236 494.589 233.428 494.392Q233.621 494.195 233.822 494.008Q234.024 493.821 234.234 493.644Q234.445 493.468 234.664 493.301Q234.883 493.135 235.11 492.98Q235.337 492.825 235.571 492.681Q235.805 492.537 236.046 492.405Q236.287 492.273 236.535 492.152Q236.782 492.032 237.035 491.924Q237.288 491.817 237.546 491.721Q237.804 491.626 238.066 491.544Q238.328 491.461 238.594 491.392Q238.86 491.323 239.129 491.266Q239.399 491.21 239.67 491.167Q239.942 491.124 240.215 491.095ZM240.688 510.015C243.603 509.366 246.083 508.727 247.818 506.104C249.025 504.279 249.644 501.902 249.038 499.752C248.433 497.601 246.849 495.922 244.867 494.959C243.867 494.472 242.909 494.26 241.822 494.066C238.75 494.875 235.973 495.716 234.277 498.614C233.281 500.317 232.933 502.172 233.495 504.086C234.157 506.339 236.153 508.288 238.258 509.247C239.037 509.603 239.862 509.804 240.688 510.015Z"></path>
	<path d="M235.993 208.146C236.7 208.405 237.389 208.684 238.04 209.068C242.459 211.673 257.003 224.364 258.368 229.015C258.09 230.439 257.958 230.603 256.97 231.677C255.22 231.601 254.217 231.497 252.774 230.464C248.997 227.76 234.704 215.694 233.96 211.734C234.144 210.015 234.87 209.341 235.993 208.146Z"></path>
	<path d="M685.194 173.174C686.06 173.327 686.833 173.573 687.669 173.84C691.313 177.055 698.128 192.327 699.243 197.17C699.669 199.022 699.197 200.009 698.214 201.553C697.124 201.49 695.198 201.498 694.288 200.867C691.804 199.146 685.153 181.86 684.244 178.226C683.726 176.152 684.101 174.962 685.194 173.174Z"></path>
	<path d="M282.325 173.677C283.103 173.929 284.148 174.198 284.796 174.729C287.786 177.175 292.572 192.085 293.441 196.147C293.915 198.365 293.589 199.502 292.407 201.41C291.326 201.252 290.217 201.133 289.349 200.394C286.579 198.031 280.823 181.026 280.716 177.259C280.67 175.645 281.357 174.849 282.325 173.677Z"></path>
	<path d="M347.933 172.892C348.46 172.853 349.507 172.692 350.061 172.82C351.401 173.129 351.477 173.652 352.035 174.778C352.185 179.978 345.082 195.189 341.649 199.372C341.203 199.367 340.391 199.382 339.976 199.276C338.743 198.961 338.519 198.267 337.961 197.256C337.668 192.304 344.656 176.995 347.933 172.892Z"></path>
	<path d="M794.224 210.359C795.12 210.402 796.268 210.538 797.053 210.989C798.184 211.639 798.148 212.309 798.307 213.456C796.381 219.19 787.132 224.866 782.448 228.517C781.153 228.642 779.957 228.611 778.857 227.865C778.108 227.356 778.298 226.995 778.191 226.168C780.322 220.117 789.146 214.141 794.224 210.359Z"></path>
	<path d="M750.596 175.204C751.781 175.322 752.624 175.522 753.716 175.997C754.173 176.551 754.719 177.13 754.872 177.859C755.528 180.978 751.715 199.275 749.796 201.772C749.066 201.611 748.14 201.485 747.468 201.168C746.637 200.777 746.247 200.55 746.005 199.677C745.03 196.169 748.715 178.61 750.596 175.204Z"></path>
	<path d="M662.89 481.821C665.641 483.806 673.809 499.094 674.664 502.606C674.959 503.817 674.592 504.08 673.991 505.098C673.475 504.838 672.845 504.556 672.397 504.175C669.599 501.797 662.15 487.133 661.786 483.756C661.687 482.832 662.331 482.485 662.89 481.821Z"></path>
	<path d="M601.074 249.312C606.394 250.116 617.932 251.621 622.39 254.09C623.043 255.186 622.872 255.274 622.621 256.549C617.563 256.483 605.136 254.96 601.13 252.354C600.486 251.018 600.73 250.782 601.074 249.312Z"></path>
	<path d="M888.737 454.121C888.906 454.148 889.078 454.161 889.245 454.201C890.004 454.382 890.589 454.393 890.95 455.137C892.525 458.387 893.199 475.649 892.004 478.882L890.37 478.241C888.326 474.88 888.385 458.444 888.737 454.121Z"></path>
	<path d="M424.331 261.197C425.825 261.893 426.111 262.16 426.65 263.726C427.682 266.719 430.939 279.285 430.366 282.206C430.25 282.795 429.863 283.297 429.612 283.842C429.469 283.793 429.321 283.755 429.181 283.695C428.06 283.212 427.636 282.423 427.24 281.324C425.685 277 422.399 265.25 424.331 261.197Z"></path>
	<path d="M344.299 513.166C344.628 513.205 344.961 513.218 345.286 513.284C346.332 513.497 346.719 513.743 347.215 514.675C348.984 517.998 352.211 530.637 351.224 534.125C350.254 533.84 349.379 533.56 348.792 532.71C346.815 529.845 343.669 516.639 344.299 513.166Z"></path>
	<path d="M451.026 143.848C451.768 143.907 452.041 143.961 452.667 144.414C453.382 144.932 453.125 144.691 453.25 145.754C450.704 149.145 441.268 152.722 437.256 154.868C436.132 154.644 435.954 154.649 435.148 153.856L435.457 152.789C439.143 148.825 446.193 146.262 451.026 143.848Z"></path>
</svg>
