<svg height="1024" width="1024" xmlns:xlink="http://www.w3.org/1999/xlink" xmlns="http://www.w3.org/2000/svg">
	<path d="M848.313 202.261C851.314 202.336 854.134 202.568 857.047 203.327C866.989 205.919 874.567 211.648 879.696 220.581C896.999 250.716 879.237 303.976 870.939 335.531C881.052 319.366 892.507 301.348 910.362 292.785C917.845 289.196 926.957 287.86 934.872 290.824C942.03 293.505 947.355 300.337 950.257 307.21C956.751 322.59 954.207 340.776 948.93 356.081C945.048 367.337 939.311 377.719 933.347 387.976C915.252 419.093 892.781 447.309 871.07 475.932C866.482 481.98 853.16 497.631 850.994 503.02C852.017 503.506 853.077 503.895 854.133 504.3C855.865 506.9 853.36 519.491 852.885 523.456L894.247 524.497C901.027 524.67 908.226 524.355 914.937 525.178C915.902 525.297 916.923 525.191 917.54 525.971C918.032 531.581 916.312 558.511 914.272 562.988C911.897 568.2 907.455 573.353 904.349 578.26Q886.454 606.351 867.738 633.901L814.356 714.018C803.689 730.143 793.293 746.399 782.31 762.318C755.615 762.036 728.831 760.572 702.131 759.831L581.731 757.048Q534.608 755.712 487.472 754.962C477.514 764.981 470.201 770.625 456.448 774.757C481.009 777.754 506.243 782.698 528.813 793.235C544.355 800.491 563.73 812.852 569.741 829.901C570.735 832.721 572.521 837.198 571.134 840.04C569.75 840.974 567.787 840.957 566.16 841.039C542.054 842.248 517.645 841.801 493.494 842.185L375.655 844.435Q356.119 844.539 336.589 845.053C331.192 845.162 325.397 844.655 320.07 845.353C317.439 845.698 317.727 848.241 316.357 850.241L315.447 850.387C313.976 848.915 313.904 847.865 313.354 845.887C298.121 844.566 279.795 845.987 264.305 846.1L158.59 847.475Q140.172 847.934 121.75 848.144C115.104 848.26 108.393 848.655 101.754 848.435C99.5394 848.362 95.7082 848.356 93.8566 847.172C90.5955 840.567 89.798 827.749 88.6048 820.024L79.8449 759.911C75.7016 719.938 61.9084 679.278 78.5779 640.202C81.0543 634.396 84.2237 628.099 88.0045 623.004C89.7316 620.676 92.4724 618.378 93.7561 615.82C95.157 613.03 95.9923 609.575 97.0038 606.606C99.0306 600.655 101.086 594.673 103.376 588.818C117.629 552.381 143.539 518.503 174.5 494.709C180.198 490.33 186.386 485.407 192.976 482.507C180.539 476.741 168.262 471.13 158.278 461.456C146.747 450.281 140.228 435.58 140.067 419.486C139.928 405.571 145.712 391.161 155.596 381.321C166.661 370.303 179.465 366.419 194.723 366.429C190.229 347.361 189.707 327.987 198.541 310.034C208.784 289.218 226.435 277.155 247.885 269.822C272.445 261.425 296.425 261.131 319.961 272.817C339.775 282.655 355.282 298.883 362.192 320.031Q362.711 321.575 363.153 323.142Q363.596 324.71 363.96 326.297Q364.325 327.884 364.61 329.488Q364.896 331.091 365.102 332.707Q365.308 334.322 365.435 335.946Q365.561 337.57 365.607 339.198Q365.653 340.826 365.619 342.454Q365.585 344.082 365.47 345.707Q365.356 347.332 365.161 348.949Q364.966 350.566 364.692 352.171Q364.418 353.777 364.065 355.367Q363.712 356.956 363.281 358.527Q362.85 360.098 362.342 361.645Q361.835 363.193 361.251 364.713Q360.667 366.234 360.009 367.724Q359.352 369.213 358.621 370.669C359.227 373.588 359.159 376.719 359.293 379.695C361.713 382.906 364.831 386.688 365.606 390.714C365.882 392.146 365.704 393.689 364.75 394.853C363.191 396.755 360.696 396.729 358.453 396.948C356.231 413.619 358.116 433.517 346.544 447.288C339.582 455.572 329.566 459.308 319.036 460.204C319.056 464.042 318.709 467.85 318.395 471.672L319.264 471.828C349.229 477.258 374.055 500.828 390.835 525.061C400.867 525.092 411.07 525.85 421.09 526.435C439.226 466.628 455.828 406.349 473.598 346.435C474.753 345.484 478.499 345.671 480.03 345.661C504.647 345.505 529.383 347.171 553.99 347.925L695.467 352.012C688.796 339.38 684.161 326.258 685.661 311.776C686.664 302.088 690.75 292.049 698.581 285.895C705.347 280.578 714.124 279.024 722.514 280.188C748.166 283.747 768.491 314.571 782.926 333.908C782.961 324.303 782.321 314.742 782.584 305.128C783.385 275.865 790.683 245.621 810.236 223.019C820.03 211.697 833.127 203.307 848.313 202.261ZM415.401 559.972C418.235 565.815 422.603 571.894 426.568 577.018Q530.502 580.571 634.378 585.514L685.794 587.741C692.879 588.031 700.888 589.141 707.916 588.37C709.176 588.232 709.879 587.876 710.768 586.988C712.149 585.608 713.214 583.862 714.283 582.236C720.908 570.012 726.153 546.395 730.524 532.429C748.432 475.22 764.016 417.272 781.793 360.011C769.561 358.01 756.083 358.737 743.705 358.246L650.989 355.262L540.75 351.624L497.845 350.169C491.012 350.005 483.995 349.586 477.175 349.916C472.857 366.897 467.385 383.686 462.38 400.479L440.233 476.469L425.686 526.865C422.842 536.954 420.057 550.792 415.401 559.972ZM199.519 483.985C190.658 487.982 182.188 494.269 174.609 500.338C142.372 526.155 118.653 560.713 104.096 599.214C102.853 602.501 101.531 605.919 100.968 609.399C126.686 587.547 156.669 578.871 190.171 581.666C218.55 584.034 246.159 597.463 264.552 619.37Q266.568 621.797 268.47 624.315Q270.373 626.832 272.158 629.434Q273.943 632.036 275.607 634.717Q277.271 637.398 278.81 640.153Q280.349 642.907 281.76 645.729Q283.172 648.552 284.452 651.436Q285.732 654.32 286.879 657.259Q288.026 660.199 289.037 663.188C296.152 684.201 298.226 707.501 301.348 729.395Q307.837 772.588 312.901 815.971Q357.306 815.197 401.715 814.894C399.903 799.462 397.098 784.148 395.342 768.73C394.261 759.236 394.293 744.626 391.869 735.982C389.059 725.966 380.191 709.883 375.427 699.812C363.863 674.278 352.324 648.829 341.373 623.024C338.327 615.847 331.511 603.781 331.187 596.345L331.595 595.355C332.432 595.153 332.475 594.952 333.292 595.441C335.543 596.789 340.717 611.082 342.213 614.463Q359.968 655.599 378.842 696.233C385.126 709.867 391.011 724.286 398.647 737.207C404.297 746.767 410.998 756.435 419.718 763.422C429.059 770.906 440.188 773.231 451.904 770.988C475.363 766.496 499.624 736.041 515.883 719.341C509.257 708.224 501.74 697.548 494.509 686.813L453.112 625.635L403.785 551.786C393.272 536.364 382.979 519.755 369.962 506.316C357.43 493.378 340.573 481.826 322.942 477.373C311.839 474.57 299.873 474.119 288.461 474.228C282.996 474.417 277.129 474.037 271.764 475.135C266.577 476.197 261.856 479.55 256.857 481.349C238.054 488.114 218.94 488.086 199.519 483.985ZM730.968 592.954C700.084 592.663 669.377 591.16 638.537 589.925C638.544 606.806 640.767 623.646 641.133 640.503C623.072 640.681 605.042 639.745 586.995 639.28C577.261 639.029 566.597 639.819 557.012 638.2Q556.96 612.602 557.632 587.013C538.256 585.491 518.625 585.294 499.194 584.455C476.063 583.456 452.825 581.905 429.683 581.504C434.921 590.924 441.226 599.757 447.268 608.673C454.238 618.957 461.105 629.316 468.179 639.528C477.078 630.275 487.492 623.895 500.606 623.653C504.45 623.582 521.428 626.264 524.592 627.49C528.123 628.858 531.249 631.548 534.847 632.635C543.406 635.223 551.564 632.804 558.824 639.989C562.524 643.65 563.659 647.865 563.7 652.897Q599.166 653.852 634.61 655.414C644.774 655.777 659.674 655.266 669.314 656.834C671.208 657.142 672.876 657.937 674.208 659.341C675.464 660.665 675.857 662.162 675.754 663.949C675.636 666.017 674.944 668.051 674.164 669.956C671.133 677.35 667.117 684.43 663.684 691.656C659.184 701.128 655.507 712.284 649.25 720.696C647.232 721.652 645.085 721.884 642.876 721.979C635.828 722.283 628.543 721.604 621.474 721.364L578.879 719.878C568.524 719.144 558.107 718.874 547.736 718.303C539.883 717.87 531.952 717.07 524.1 716.918C519.357 724.689 511.012 730.977 504.898 737.764C559.209 738.481 613.53 740.801 667.843 741.049L741.097 741.344C752.029 741.431 763.811 740.56 774.597 741.895Q821.608 666.134 871.561 592.279L897.449 553.218C902.415 545.787 909.05 537.757 912.455 529.522C906.5 528.837 900.41 528.913 894.417 528.768C880.55 528.433 866.603 528.583 852.759 527.949L849.161 574.668C848.755 579.941 849.039 587.607 847.67 592.496C845.532 593.444 843.114 593.473 840.804 593.526C836.111 593.633 791.211 592.668 789.947 592.153C789.161 591.834 789.042 591.502 788.54 590.861C787.252 584.403 790.709 535.878 791.892 527.211C778.319 527.017 764.774 526.477 751.199 526.474L730.968 592.954ZM279.36 469.968C289.216 469.92 299.51 469.311 309.278 470.658C309.583 465.629 310.602 460.671 311.754 455.772C322.681 456.059 332.935 454.2 341.127 446.387C356.066 432.14 354.497 397.063 354.743 377.681C354.75 377.15 354.762 377.356 354.706 376.916C349.626 383.459 342.796 389.145 336.278 394.249C334.271 391.464 332.56 389.24 328.952 388.694C326.656 388.347 324.356 389.022 322.522 390.425C319.609 392.652 317.899 396.458 317.633 400.065C317.234 405.488 320.168 409.329 323.331 413.333C314.589 434.086 300.893 450.729 284.326 465.749L279.36 469.968ZM819.468 439.875C819.406 436.132 818.962 431.898 819.691 428.24L820.813 427.481C821.829 427.922 821.596 427.594 821.978 428.489C823.327 431.656 823.301 451.123 823.516 455.679C824.001 465.956 825.297 476.241 826.384 486.47C826.887 491.209 826.961 496.494 828.075 501.089C828.308 502.052 828.299 502.399 829.165 502.936C830.463 502.026 830.902 500.43 831.189 498.931C832.432 492.421 832.475 482.184 833.426 474.946Q837.643 441.542 844.581 408.596Q848.21 392.264 853.142 376.278C856.127 366.695 859.547 357.25 862.516 347.663C865.587 337.746 868.161 327.662 870.886 317.645C878.311 290.358 891.53 243.973 873.417 219.14C868.238 212.039 860.772 208.03 852.173 206.791C850.465 206.545 848.832 206.466 847.115 206.607C829.276 210.536 815.955 220.38 806.086 235.796C784.13 270.089 784.77 315.07 789.117 354.152C792.823 352.408 798.256 349.47 802.407 350.49C803.34 351.632 803.363 352.276 803.192 353.748C802.301 361.429 795.786 371.42 795.945 378.798C796.193 390.273 816.985 496.268 820.53 502.047C820.598 502.159 820.688 502.256 820.768 502.36C822.066 502.461 823.004 502.558 824.274 502.185C824.255 495.65 823.144 488.955 822.454 482.452C820.951 468.297 819.33 454.131 819.468 439.875ZM778.232 745.184L780.923 753.384L781.671 754.146C786.893 750.098 813.476 707.017 819.215 698.425Q850.603 652.026 881.405 605.234C890.316 591.619 899.95 578.1 908.019 563.976C910.233 560.1 911.108 556.414 911.665 552.036C912.11 548.547 913.167 543.263 912.16 539.86C906.207 546.637 901.396 555.09 896.402 562.626L868.371 605.074Q833.761 656.487 800.667 708.888L786.256 732.18C783.595 736.46 780.565 740.735 778.232 745.184ZM775.181 447.267C767.735 472.194 759.716 496.922 752.736 521.99C763.943 522.237 775.182 522.333 786.379 522.859C788.256 522.796 790.148 522.674 792.024 522.794L792.108 522.138C792.781 516.609 792.021 510.012 792.651 505.462C792.787 504.487 793.213 503.477 794.026 502.884C797.037 500.689 803.729 502.022 807.332 502.136C803.299 494.751 778.544 450.488 775.181 447.267ZM783.465 341.401C767.379 322.042 747.232 287.261 719.988 284.317C719.266 284.239 718.566 284.228 717.84 284.226C710.069 284.886 703.051 287.009 697.746 293.157C691.331 300.59 688.888 311.629 689.763 321.236C690.764 332.225 695.543 342.727 700.997 352.177C720.168 352.827 739.366 353.833 758.544 354.112C767.229 354.469 775.974 355.061 784.663 355.08L783.465 341.401ZM492.981 750.18C505.969 750.928 519.005 750.999 532.011 751.306L603.816 752.93C658.953 754.269 714.104 756.306 769.25 757.095L777.437 757.299L773.578 745.861C760.69 745.126 747.574 745.54 734.657 745.531C705.394 745.51 676.05 746.011 646.796 745.406L549.347 743.224L517.831 742.409C512.398 742.288 506.767 741.874 501.351 742.261C498.21 743.736 495.493 747.716 492.981 750.18ZM922.277 293.671C901.509 298.648 887.287 317.396 876.626 334.746C852.133 374.61 842.41 432.424 837.616 478.563C837.095 483.572 834.668 498.194 835.822 502.195C835.871 502.365 835.953 502.523 836.018 502.686C837.501 502.891 837.54 502.944 838.82 502.191C841.019 498.995 841.319 494.907 842.516 491.289C844.024 486.729 852.512 463.383 854.994 462.047L856.328 462.003C857.077 463.117 856.939 463.628 856.679 464.889C855.808 469.108 853.499 473.427 851.775 477.374C849.693 482.684 843.038 497.502 843.448 502.705C844.53 502.763 844.684 502.409 845.439 501.694C849.541 497.808 852.79 492.46 856.159 487.915Q863.198 478.486 870.41 469.189Q887.517 447.103 903.836 424.428C917.662 405.338 931.772 385.533 941.19 363.798C945.926 352.866 949.485 340.753 949.558 328.758C949.618 318.854 947.613 307.407 940.473 300.005C936.819 296.217 931.588 293.545 926.261 293.447C924.942 293.423 923.591 293.563 922.277 293.671ZM397.754 754.301C398.291 758.84 398.758 763.381 399.764 767.846C405.14 768.583 410.657 769.008 415.993 769.874L421.923 770.458C417.809 767.359 413.649 764.317 410.126 760.532C408.725 759.027 405.496 754.125 403.826 753.787C403.798 753.781 403.769 753.8 403.74 753.807L397.754 754.301ZM394.419 529.812C400.659 538.35 406.254 547.532 412.739 555.853L414.686 549.126Q417.312 540.395 420.062 531.702C412.021 531.492 402.187 531.771 394.419 529.812ZM470.767 643.524C480.719 658.796 491.217 673.708 501.398 688.827C507.396 697.734 513.002 707.393 519.678 715.779C527.842 704.472 560.996 661.383 559.213 649.145C558.952 647.357 557.91 645.52 556.915 644.044C555.2 642.931 553.545 641.918 551.693 641.05C546.648 642.446 541.635 643.843 537.219 646.756C534.723 648.402 526 658.446 524.289 658.488C523.796 658.5 523.359 658.159 522.895 657.995C522.912 654.188 525.969 651.33 528.495 648.833C533.893 643.498 539.695 640.714 546.74 638.108C538.844 637.046 529.159 637.432 522.019 641.415C519.463 642.841 512.234 650.046 509.787 648.02C509.528 646.805 509.495 646.255 510.189 645.17C513.527 639.948 523.338 635.789 529.056 633.842C521.407 631.234 514.863 629.079 507.088 633.079C501.951 635.722 499.187 641.7 493.62 643.145L492.299 642.389C492.02 641.284 491.998 641.211 492.532 640.247C495.121 635.574 502.926 630.898 507.395 628.07C503.966 627.914 500.652 627.798 497.231 628.139C486.465 629.634 478.046 635.647 470.767 643.524ZM807.974 494.169C809.49 497.022 810.844 500.558 813.523 502.466C814.712 502.59 814.568 502.773 815.645 502.049C815.215 496.829 813.065 490.936 811.861 485.797Q808.56 471.264 805.448 456.69Q800.362 433.21 795.977 409.59C794.758 402.854 793.93 396.039 792.652 389.321C786.08 406.251 782.379 425.373 776.458 442.775C781.323 448.403 784.915 455.313 788.685 461.702C795.071 472.522 801.252 483.555 807.974 494.169ZM797.684 506.829C795.776 519.235 795.802 532.427 795.012 544.982C794.117 559.192 792.442 573.75 792.494 587.956C798.703 587.98 841.525 590.077 843.373 589.143L843.406 588.546C846.015 568.473 846.881 547.821 848.555 527.63C849.074 521.363 849.127 514.84 850.059 508.643C832.74 507.221 815.077 507.453 797.684 506.829Z" fill="#020202"></path>
	<path d="M487.529 358.538C498.673 358.673 509.852 359.305 521 359.606L632.186 363.094Q675.035 364.167 717.86 365.949C732.475 366.464 747.189 366.652 761.778 367.593C763.331 367.693 765.476 367.637 766.722 368.626C767.197 370.548 766.623 372.443 766.108 374.3C761.791 389.841 756.759 405.216 752.173 420.683L728.127 503.124Q720.87 528.014 713.348 552.825C710.891 561.155 709.017 570.066 705.828 578.129C705.157 578.467 705.169 578.49 704.349 578.743C701.08 579.753 651.152 576.695 643.103 576.394L504.452 570.95Q478.118 570.127 451.802 568.841C445.855 568.55 439.857 568.552 433.925 568.057C431.516 567.857 428.691 567.594 426.568 566.41C426.304 565.872 426.043 565.365 425.935 564.77C425.608 562.974 426.153 560.722 426.641 559.003C429.186 550.045 432.451 541.193 435.106 532.238L468.465 420.039C471.155 410.973 484.065 363.035 487.529 358.538ZM702.512 574.498C708.243 556.398 713.026 538.05 718.468 519.87Q740.92 446.138 762.297 372.088C752.119 371.122 741.825 371.058 731.61 370.739L683.331 369.277L554.949 364.974L512.71 363.823C505.248 363.638 497.392 363.962 490.008 363.033C486.267 373.926 483.447 385.204 480.109 396.232L454.313 482.436C449.3 499.181 444.6 516.04 439.486 532.749C436.416 542.78 432.309 553.035 430.195 563.276C443.159 564.652 456.523 564.61 469.559 565.111L547.016 568.12Q603.001 570.89 659.029 572.596C673.372 573.095 688.194 574.879 702.512 574.498Z" fill="#020202"></path>
	<path d="M525.488 393.018C537.452 393.799 549.486 393.859 561.467 394.351L641.992 397.891C651.355 398.33 660.687 399.071 670.04 399.554C675.878 399.856 682.097 399.681 687.869 400.557C689.241 400.766 690.938 400.909 691.98 401.909C692.347 403.401 692.274 404.648 692.075 406.169C690.793 415.959 687.932 426.035 685.91 435.757L675.518 487.774C673.435 497.823 670.709 508.002 668.993 518.093C668.637 520.186 669.38 522.323 668.821 524.353C667.711 525.372 667.44 525.34 665.929 525.583C653.59 523.033 639.835 523.149 627.255 522.278L539.741 517.047C525.457 516.22 510.655 516.244 496.505 514.203C498.907 505.323 500.653 496.18 502.762 487.214L515.61 433.124C517.231 426.276 523.874 402.372 523.935 397.001C523.959 394.957 524.199 394.566 525.488 393.018ZM597.473 460.265C608.283 469.74 619.536 479.204 629.637 489.424C641.375 499.618 653.26 509.717 664.698 520.248C669.166 494.649 674.716 469.065 680.009 443.617C682.224 432.961 684.956 422.177 686.675 411.439C686.882 410.141 687.139 409.565 686.442 408.424C665.028 421.414 643 433.488 621.399 446.182C613.613 450.757 604.699 454.924 597.473 460.265ZM593.773 462.679C575.839 471.937 558.299 482.142 540.662 491.96C530.147 497.813 518.147 503.443 508.422 510.332C524.48 512.053 540.868 512.832 557 513.691C564.221 514.076 571.712 513.97 578.877 514.823L634.477 518.266C642.257 518.769 650.031 519.657 657.812 520.067Q625.629 491.555 593.773 462.679ZM527.809 400.281C525.767 409.981 522.941 419.547 520.576 429.177Q514.28 455.002 508.522 480.953C506.428 490.132 504.021 499.258 502.217 508.499C515.904 500.732 529.501 492.71 543.335 485.215C558.891 476.769 574.996 468.505 590.111 459.327C568.869 440.217 549.242 419.171 527.809 400.281ZM531.632 397.82C552.336 417.512 572.767 437.665 594.012 456.773C612.833 445.602 632.25 435.316 650.792 423.672C656.582 420.359 662.357 416.992 668.232 413.831C673.251 411.131 679.159 408.793 683.532 405.117C677.012 403.753 669.883 403.807 663.228 403.483L632.28 402.045C598.788 400.508 565.148 398.367 531.632 397.82Z" fill="#020202"></path>
	<path d="M832.191 297.311L832.613 297.697C833.938 301.291 827.695 352.83 827.067 360.699L825.202 385.402C824.912 389.231 825.059 393.875 824.032 397.53C823.618 399.006 823.23 398.986 821.943 399.667L820.908 398.567C818.465 389.479 828.107 304.902 832.191 297.311Z" fill="#020202"></path>
	<path d="M906.127 360.816C906.587 361.267 906.877 361.762 907.226 362.299C907.239 364.646 906.252 366.669 905.246 368.742C899.365 380.851 892.056 392.463 885.757 404.395C882.063 411.394 874.287 429.376 869.96 434.587C869.909 434.541 869.854 434.499 869.805 434.45C869.314 433.954 868.538 433.474 868.586 432.733C868.984 426.588 894.098 379.172 898.396 371.829C900.55 368.148 902.916 363.677 906.127 360.816Z" fill="#020202"></path>
	<path d="M324.586 398.274C326.834 398.515 328.299 398.854 329.843 400.602C331.155 402.088 331.25 404.122 331.162 405.983C328.404 405.142 326.077 404.658 324.343 402.231C323.893 400.619 324.104 399.801 324.586 398.274Z" fill="#020202"></path>
	<path d="M562.065 657.6C596.4 657.876 630.832 659.837 665.149 661.077C659.26 671.082 654.596 681.619 649.741 692.146C647.565 696.865 645.58 701.811 642.947 706.292C631.307 706.124 619.638 705.154 608.001 704.732L545.25 703.007C542.859 702.993 539.732 703.326 537.442 702.737C536.417 702.473 536.375 702.387 535.824 701.455C536.078 700.515 536.201 700.041 536.917 699.33C537.549 698.702 538.315 698.46 539.186 698.361C547.629 697.403 564.647 698.946 573.655 699.353Q604.67 700.547 635.669 702.09C638.34 698.052 649.563 676.34 651.026 671.937L650.363 670.943C645.589 668.54 569.913 667.423 557.868 667.068C559.37 663.946 560.753 660.808 562.065 657.6Z" fill="#FEFEFE"></path>
	<path d="M670.251 661.715L671.554 662.746C672.367 666.662 650.145 710.317 646.439 717.911C633.542 716.844 620.302 716.936 607.352 716.418Q569.105 714.857 530.876 712.901C530.179 712.826 529.726 712.651 529.079 712.396C528.858 710.662 530.451 708.671 531.309 707.213Q569.131 708.005 606.929 709.567C619.544 710.061 633.074 711.738 645.608 710.672C651.117 702.555 658.406 684.329 663.027 674.69C665.125 670.312 667.243 665.537 670.251 661.715Z" fill="#FEFEFE"></path>
	<path d="M595.644 686.162C601.649 686.841 607.962 686.499 614.029 686.903L608.522 696.473C602.44 696.489 596.255 696.09 590.211 695.431C591.784 692.253 593.816 689.206 595.644 686.162Z" fill="#FEFEFE"></path>
	<path d="M569.884 685.485C576.264 685.51 582.666 685.831 589.044 686.036L583.989 695.4C577.803 695.304 571.564 694.754 565.384 694.391C566.718 691.364 568.367 688.427 569.884 685.485Z" fill="#FEFEFE"></path>
	<path d="M602.861 672.913L621.506 673.621L616.875 682.514Q607.148 682.147 597.415 682.028L602.861 672.913Z" fill="#FEFEFE"></path>
	<path d="M619.788 687.106C625.495 687.509 631.209 687.472 636.92 687.961C635.435 691.022 634.094 694.442 631.962 697.102C626.082 697.079 620.204 696.747 614.331 696.489L619.788 687.106Z" fill="#FEFEFE"></path>
	<path d="M547.148 684.533Q555.965 684.771 564.769 685.3C563.279 688.414 561.375 691.417 559.659 694.417Q550.631 693.862 541.593 693.484L547.148 684.533Z" fill="#FEFEFE"></path>
	<path d="M626.401 673.973Q635.377 674.222 644.347 674.625L639.408 683.503C633.692 683.455 627.918 682.973 622.207 682.661L626.401 673.973Z" fill="#FEFEFE"></path>
	<path d="M579.028 672.56C584.874 672.604 590.706 672.654 596.547 672.944Q593.831 677.375 591.292 681.91C585.546 681.137 579.338 681.281 573.523 680.983C575.284 678.137 577.194 675.361 579.028 672.56Z" fill="#FEFEFE"></path>
	<path d="M555.266 671.455C561.147 671.495 567.021 671.811 572.895 672.08L566.949 680.604C564.224 681.675 553.739 680.524 550.264 680.39L555.266 671.455Z" fill="#FEFEFE"></path>
	<path d="M527.752 174.522L529.102 174.64C529.92 175.572 530.265 176.446 530.7 177.575C536.66 193.066 541.286 209.159 546.82 224.822C551.363 237.678 557.095 250.589 560.83 263.664C561.238 265.092 561.656 266.175 561.047 267.562C557.29 270.535 530.413 278.418 523.67 280.72C504.807 287.158 485.929 293.917 467.25 300.867C456.87 304.73 445.836 309.973 435.118 312.49C434.173 312.693 433.687 312.658 432.747 312.55C429.775 309.911 403.872 230.708 401.176 220.576C426.047 211.135 451.201 202.527 476.169 193.364C493.324 187.069 510.295 179.956 527.752 174.522ZM425.376 229.286C443.542 234.349 461.923 239.031 479.953 244.534C484.827 237.578 522.493 183.574 522.61 181.165L522.107 181.011L437.163 211.904C426.783 215.751 416.559 220.113 406.115 223.763Q415.681 226.75 425.376 229.286ZM481.624 249.03C471.597 262.922 461.595 276.861 451.33 290.576C447.135 296.183 442.455 301.495 438.406 307.196C455.5 300.235 473.24 293.684 490.807 288.026C503.338 283.57 515.809 278.896 528.43 274.699C536.248 272.099 544.735 270.141 552.254 266.835C536.278 262.722 520.366 258.348 504.358 254.362C496.942 252.515 488.839 251.38 481.624 249.03ZM556.04 263.201C553.94 256.724 528.28 182.336 527.748 181.829C520.762 192.296 513.433 202.509 506.343 212.902C499.035 223.613 491.989 234.493 484.526 245.102C497.287 248.327 510.044 251.833 522.876 254.74C533.865 257.736 545.152 259.911 556.04 263.201ZM407.834 228.601C415.33 254.749 425.402 280.353 434.014 306.174C440.706 297.984 446.747 289.233 453.143 280.807Q465.245 264.568 477.168 248.196C461.101 242.771 444.326 238.909 427.959 234.461C421.296 232.65 414.276 231.077 407.834 228.601Z" fill="#020202"></path>
	<path d="M196.296 222.539C196.715 222.899 196.515 222.636 196.606 223.479C191.679 229.514 173.421 240.362 165.726 246.402C155.761 254.223 146.356 263.351 137.465 272.369C127.718 282.255 118.304 293.017 110.248 304.329C104.339 312.627 99.0693 322.736 91.9697 329.97L91.6538 329.694C91.6127 329.285 91.5608 329.073 91.6914 328.635C93.0948 323.925 98.0293 317.062 100.731 312.741C120.347 281.361 148.803 251.733 180.024 231.781C185.223 228.458 190.606 224.947 196.296 222.539Z" fill="#020202"></path>
	<path d="M247.884 234.152L248.667 234.213C248.173 235.712 244.781 236.888 243.373 237.525C232.692 242.355 221.821 247.201 211.655 253.057C190.159 265.44 170.273 281.937 151.842 298.429L151.141 298.111C151.439 296.945 151.774 296.057 152.488 295.076C156.06 290.175 161.566 285.547 166.135 281.527C185.584 264.416 222.179 238.474 247.884 234.152Z" fill="#020202"></path>
	<path d="M126.855 324.802L127.455 325.426C127.851 328.544 102.982 369.158 99.284 374.664C98.6714 373.983 98.4028 373.437 98.4257 372.488C98.6151 364.639 120.66 330.756 126.855 324.802Z" fill="#020202"></path>
	<path d="M757.797 767.164L759.411 767.99C759.973 769.01 760.026 769.785 760.094 770.924C760.346 775.17 760.965 792.46 759.431 795.694C759.198 796.186 758.376 796.887 757.991 797.322L756.971 796.545C754.856 792.239 755.915 779.943 755.995 774.751C756.04 771.826 755.58 769.316 757.797 767.164Z" fill="#020202"></path>
</svg>
