<svg height="1024" width="1024" xmlns:xlink="http://www.w3.org/1999/xlink" xmlns="http://www.w3.org/2000/svg">
	<path d="M561.722 346.108C574.073 345.223 585.6 347.127 596.009 354.077C608.663 362.527 616.733 374.394 619.679 389.205Q625.865 386.992 632.194 385.228C646.627 381.29 662.533 380.002 675.975 387.865C684.436 392.814 691.541 402.872 693.904 412.334Q694.181 413.479 694.401 414.635Q694.622 415.792 694.786 416.958Q694.95 418.124 695.057 419.297Q695.164 420.469 695.213 421.646Q695.263 422.822 695.255 424Q695.248 425.177 695.183 426.353Q695.118 427.529 694.996 428.7Q694.874 429.871 694.695 431.035Q694.516 432.198 694.281 433.352Q694.045 434.506 693.754 435.647Q693.463 436.788 693.116 437.913Q692.77 439.039 692.369 440.146Q691.968 441.253 691.514 442.339Q691.059 443.425 690.553 444.488Q690.046 445.551 689.488 446.588Q688.931 447.625 688.323 448.634C695.932 454.016 703.414 459.621 709.382 466.864C721.766 481.893 728.162 501.695 726.159 521.135C724.184 540.305 713.247 559.563 698.212 571.514C682.233 584.215 664.198 588.203 644.173 585.857C644.62 591.613 645.628 597.573 646.783 603.228C655.824 607.416 665.061 611.403 673.488 616.763C707.61 638.467 732.519 668.524 753.219 702.846C762.387 718.046 770.6 733.674 776.968 750.252C773.426 753.997 768.852 756.881 764.861 760.148C770.833 782.748 774.639 806.68 775.044 830.085L855.674 827.78C866.063 827.526 877.113 826.045 887.443 826.762C890.031 826.941 892.149 827.424 894.2 829.04C894.595 829.83 894.948 830.182 894.832 831.104C894.139 836.614 889.249 836.025 885.119 836.093L702.623 840.731C651.087 841.584 599.555 840.916 548.019 841.161C541.005 841.195 480.92 841.154 480.43 841.361C480.162 841.474 479.983 841.733 479.759 841.919C479.717 842.672 479.646 843.466 479.714 844.217C479.739 844.484 480.005 845.91 480.133 846.041C480.82 846.742 493.747 846.18 495.426 846.162L578.733 846.071L602.512 845.967C607.097 845.936 612.089 845.542 616.628 846.221C620.326 846.773 623.941 848.178 626.765 850.678C628.686 852.378 630.481 854.99 630.56 857.638C630.649 860.615 628.988 863.686 626.928 865.743C622.5 870.164 606.299 872.882 600.015 874.486C578.158 880.066 556.451 885.745 533.984 888.374C514.164 890.693 493.696 890.198 473.764 890.176L399.963 890.109Q375.796 890.302 351.628 890.178C339.585 890.187 327.193 890.818 315.255 889.05C310.739 888.381 306.018 887.511 302.4 884.518C299.764 882.338 298.082 879.269 297.952 875.82C297.811 872.114 299.524 868.597 302.146 866.042C304.476 863.772 307.481 862.246 310.474 861.036C318.368 857.844 327.077 856.143 335.295 853.967C344.26 851.595 353.295 848.452 362.513 847.302C372.187 846.096 382.242 846.477 391.963 846.586L392.099 840.666C373.815 840.168 355.314 841.344 337.013 841.576C303.667 841.999 270.294 841.565 236.937 842.07C223.419 842.275 209.866 842.22 196.354 842.558C181.016 842.942 165.466 843.746 150.137 843.506C148.906 843.487 147.481 843.451 146.395 842.783C145.326 842.125 144.648 840.815 144.458 839.61C144.284 838.512 144.491 837.113 145.316 836.315C146.776 834.903 149.057 834.548 151.013 834.418C163.091 833.616 175.537 833.902 187.656 833.788L242.243 833.08L392.325 831.147C392.728 820.641 393.152 810.211 392.918 799.695C384.031 799.391 375.178 798.394 366.312 797.731Q344.648 796.115 322.962 794.835L284.196 792.468C277.497 792.047 270.437 791.962 263.815 790.947C260.522 790.442 256.673 789.783 254.696 786.876C253.317 784.848 252.583 782.419 252.059 780.046C247.488 759.31 244.011 738.185 240.224 717.293L225.29 636.36C222.794 622.805 198.878 499.909 200.174 493.894C200.914 490.46 203.438 488.856 206.191 487.073C213.24 486.551 220.717 487.587 227.765 488.134L268.824 491.627L371.989 500.432C395.663 502.518 419.255 504.862 442.997 506.122C438.889 500.695 436.738 495.369 436.778 488.501C436.829 479.92 439.974 472.335 446.15 466.388C452.786 459.997 461.577 457.106 470.727 457.319C463.537 449.164 457.222 441.018 454.244 430.401C451.319 419.976 451.097 408.203 456.567 398.544C461.87 389.18 471.657 382.964 481.865 380.216C497.701 375.952 517.343 380.622 531.265 388.681Q530.951 387.156 530.731 385.615C529.393 376.439 532.209 366.332 537.784 358.951C543.757 351.045 552.115 347.404 561.722 346.108ZM393.394 796.172L395.203 753C396.183 732.408 394.443 711.047 411.051 695.707C420.016 687.425 432.053 683.509 444.166 683.994C455.976 684.468 466.929 690 474.89 698.639C484.166 708.705 487.845 721.263 487.238 734.786C486.76 745.437 485.485 756.116 484.717 766.757C483.978 776.992 483.781 787.526 482.399 797.669Q516.755 798.69 551.125 798.997C578.279 799.115 605.328 798.697 632.474 798.165C645.021 797.92 657.717 798.223 670.227 797.439C668.359 779.022 665.333 760.711 662.814 742.375C655.395 688.348 646.705 634.526 639.476 580.469C637.422 565.108 634.542 549.937 633.072 534.492C632.918 532.872 632.38 527.579 631.074 526.733C628.754 525.231 570.443 521.104 561.944 520.416L310.502 498.827C290.188 497.061 269.82 495.736 249.526 493.814L224.11 491.434C219.173 490.98 213.666 490.113 208.735 490.519C207.276 491.223 204.159 492.371 203.677 493.998C202.866 496.736 204.262 502.125 204.732 504.932C206.461 515.27 208.688 525.542 210.58 535.853L227.452 626.972L242.217 706.857Q246.827 733.416 252.067 759.857C253.491 767.168 254.739 779.468 258.113 785.647C266.841 789.303 282.002 788.683 291.692 789.334L345.498 792.659C361.451 793.695 377.448 795.348 393.394 796.172ZM641.583 518.207C638.097 505.444 637.344 493.751 644.065 481.795C645.342 479.522 646.855 477.412 648.414 475.326C640.653 472.898 633.407 467.646 629.542 460.373C625.773 453.279 625.741 446.309 627.129 438.625C616.208 444.922 605.937 447.739 593.435 444.327C585.136 442.062 578.682 436.645 574.249 429.395C566.351 439.229 554.432 444.869 541.976 446.234C536.714 446.811 531.903 446.281 526.8 444.951C518.377 466.975 511.32 489.266 504.503 511.826L568.972 517.029C576.996 517.639 585.094 518.699 593.125 519.012C602.91 520.603 613.354 520.764 623.262 521.501C625.966 521.702 629.148 521.412 631.752 521.958C632.623 522.14 633.01 522.508 633.756 522.973C634.032 523.144 634.32 523.294 634.6 523.458C634.8 523.575 634.996 523.697 635.194 523.816C637.551 522.213 639.531 520.173 641.583 518.207ZM647.297 608.096L647.347 608.918C647.779 615.568 649.055 622.22 650.067 628.804L654.724 659.195C657.117 674.919 675.221 796.681 674.128 799.983C672.076 801.757 657.232 801.188 653.496 801.31Q595.581 803.277 537.641 802.297C519.29 802.036 500.895 802.028 482.573 800.93C482.163 805.784 479.546 828.887 481.035 832.102Q566.705 832.578 652.375 831.997Q673.789 831.973 695.201 831.714L680.148 753.747C678.169 743.246 675.495 732.461 674.2 721.871C673.976 720.046 673.95 718.622 674.419 716.844L675.016 716.409C676.272 716.72 676.689 716.685 677.335 717.933C678.602 720.38 679.302 727.593 679.878 730.586C682.72 745.324 685.073 760.35 688.657 774.918C698.205 775.191 708.516 774.937 717.931 773.341C734.173 770.587 758.81 761.639 770.935 750.205C771.261 749.898 771.566 749.571 771.874 749.247C766.937 734.193 758.944 720.262 750.824 706.743C746.594 699.702 742.451 692.499 737.803 685.726C716.877 655.232 689.277 628.499 656.043 611.768C653.271 610.372 650.313 608.885 647.297 608.096ZM479.23 850.004C478.791 855.665 478.221 861.314 477.936 866.986C468.315 867.192 394.883 867.786 391.421 866.233C390.739 861.238 391.648 855.999 391.469 850.948C381.635 850.721 371.275 850.116 361.514 851.334C353.157 852.378 309.275 863.95 304.11 868.753C302.697 870.067 300.962 872.348 300.858 874.363C300.795 875.591 301.015 876.376 301.925 877.248C306.949 882.06 332.866 881.132 340.623 881.054L455.669 881.072C484.133 881.061 512.772 882.202 541.074 878.611C560.222 876.181 578.753 870.747 597.475 866.28C604.254 864.663 619.103 863.093 624.05 858.317C625.161 857.245 625.768 855.771 625.611 854.202C625.488 852.967 624.561 852.059 623.548 851.455C618.162 848.249 580.65 849.749 572.103 849.753C541.158 849.844 510.17 849.568 479.23 850.004ZM639.944 551.998C645.829 555.86 650.506 557.113 657.604 556.482C665.605 554.745 672.759 551.244 677.246 544.061C680.049 539.575 681.129 534.186 679.796 529.025Q679.572 528.142 679.261 527.285Q678.951 526.428 678.557 525.606Q678.163 524.784 677.689 524.005Q677.216 523.227 676.667 522.499Q676.119 521.771 675.5 521.101Q674.882 520.432 674.201 519.826Q673.52 519.221 672.782 518.686Q672.043 518.152 671.256 517.693C668.035 515.825 663.971 514.719 660.249 514.646C652.137 515.369 644.6 519.691 639.508 526.065C636.325 530.05 636.852 534.225 637.494 538.97C638.081 543.305 638.884 547.757 639.944 551.998ZM439.738 687.748C427.57 689.186 417.707 693.348 409.963 703.214Q409.116 704.299 408.333 705.43Q407.55 706.562 406.834 707.737Q406.118 708.912 405.471 710.127Q404.824 711.341 404.248 712.591Q403.672 713.841 403.17 715.123Q402.668 716.404 402.24 717.712Q401.813 719.02 401.462 720.351Q401.111 721.681 400.838 723.03C398.841 733.339 399.623 744.503 399.077 754.994C397.202 791.051 396.51 827.131 395.283 863.21C410.55 863.554 425.828 863.177 441.096 863.409C452.08 863.505 463.325 864.173 474.275 863.733C476.879 836.664 477.693 809.377 479.685 782.249L481.988 752.646C482.755 743.88 484.33 734.752 483.248 725.967C482.176 717.272 478.559 709.346 472.974 702.616C465.716 693.87 455.814 688.794 444.51 687.809C442.896 687.668 441.358 687.629 439.738 687.748Z"></path>
	<path d="M565.794 489.083C566.587 489.21 567.546 489.398 568.279 489.72C569.601 490.3 569.834 491.04 570.291 492.318C570.104 494.625 568.532 496.456 567.548 498.519C567.607 499.754 567.608 500.477 568.592 501.408C571.53 504.19 575.346 498.975 578.728 499.373C579.946 499.516 580.538 500.094 581.254 501.008C581.584 502.183 581.75 503.053 581.335 504.245C580.771 505.866 579.774 507.244 578.266 508.07C576.522 509.275 574.769 510.294 572.73 510.925C569.867 511.811 566.69 511.595 564.062 510.119C561.051 508.428 558.962 505.413 558.187 502.07C557.477 499.005 557.807 495.645 559.559 492.979C561.231 490.434 562.865 489.611 565.794 489.083Z"></path>
	<path d="M539.143 473.896C541.26 474.127 543.676 474.353 544.968 476.308C546.791 479.067 546.324 482.698 545.505 485.722C544.452 489.616 542.782 493.613 539.219 495.725C538.07 495.886 537.131 495.934 536.003 495.578C534.541 495.118 533.341 494.105 532.678 492.724C531.125 489.484 531.756 485.215 532.841 481.934C534.06 478.246 535.647 475.669 539.143 473.896Z"></path>
	<path d="M600.48 478.087C601.459 478.147 602.584 478.147 603.532 478.385C604.678 478.672 605.496 479.308 606.143 480.291C607.742 482.723 607.276 486.168 606.597 488.814C605.384 493.539 603.517 496.959 599.279 499.425C598.174 499.469 597.024 499.342 596.023 498.837C594.551 498.094 593.617 496.531 593.219 494.982C592.12 490.711 593.705 484.834 595.94 481.147C597.124 479.194 598.368 478.627 600.48 478.087Z"></path>
	<path d="M600.767 457.472C604.944 458.283 609.287 459.705 612.376 462.792C613.326 463.741 614.214 465.143 614.001 466.546C613.713 468.447 612.174 469.681 610.622 470.547C606.947 469.964 602.543 468.804 599.698 466.29C598.582 465.303 597.72 464.033 597.781 462.477C597.865 460.305 599.264 458.851 600.767 457.472Z"></path>
	<path d="M545.551 454.169C546.556 454.07 547.419 454.07 548.407 454.266C550.228 454.627 551.115 455.102 552.134 456.668C552.209 457.426 552.198 457.941 551.859 458.658C549.981 462.631 544.958 463.49 541.179 464.546C539.282 464.562 536.937 464.827 535.303 463.659C534.188 462.862 534.188 462.342 534.027 461.101C534.313 460.282 534.562 459.637 535.128 458.963C537.9 455.654 541.398 454.638 545.551 454.169Z"></path>
	<path d="M657.252 530.108C658.766 529.947 660.011 529.875 661.515 530.14C662.152 530.737 662.351 530.974 662.574 531.856C662.812 532.795 662.546 532.826 662.082 533.596C659.986 534.781 657.562 534.905 655.21 535.232C650.184 539.448 648.601 543.147 647.326 549.402L646.963 550.054C645.82 550.541 645.707 550.363 644.496 549.996C644.051 549.516 643.76 549.106 643.585 548.464C642.717 545.289 643.877 542.342 645.485 539.616C648.274 534.883 651.931 531.558 657.252 530.108Z"></path>
	<path d="M217.766 157.689C236.126 158.318 254.662 157.836 273.04 157.838L370.868 157.785L624.451 157.497L722.841 157.473L754.484 157.584C760.609 157.627 766.877 157.371 772.97 158.015Q774.703 158.212 776.419 158.522Q778.135 158.833 779.827 159.255Q781.519 159.677 783.179 160.21Q784.84 160.742 786.462 161.383Q788.084 162.023 789.661 162.768Q791.237 163.514 792.761 164.361Q794.286 165.209 795.751 166.154Q797.216 167.1 798.616 168.14C810.534 177.158 818.831 190.295 820.731 205.213C822.559 219.571 818.933 233.759 809.924 245.144C799.264 258.616 785.319 264.503 768.62 266.45C753.636 266.006 738.505 266.536 723.503 266.535L629.781 266.531L364.954 266.63Q312.371 266.896 259.787 266.636L228.862 266.587C222.904 266.568 216.681 266.832 210.762 266.139C201.101 265.009 191.945 260.9 184.274 254.99C173.671 246.819 165.897 234.114 164.25 220.752C162.379 205.568 166.227 191.368 175.695 179.337C186.48 165.633 200.813 159.613 217.766 157.689ZM725.375 262.776L753.683 262.749C773.488 262.704 788.076 261.955 802.941 247.078C811.955 238.057 817.627 225.454 817.518 212.598C817.403 198.835 811.761 186.355 801.933 176.788C795.052 170.09 785.943 165.23 776.595 163.068C767.857 161.047 758.124 161.567 749.19 161.465L709.31 161.357C694.693 161.461 680.074 160.812 665.45 161.1C638.342 161.634 611.318 161.082 584.218 161.199L382.705 161.462L305.681 161.234C291.745 161.198 277.749 160.778 263.817 161.211C233.675 163.479 202.803 153.905 180.182 180.279C171.398 190.521 166.616 203.63 167.673 217.171C168.702 230.346 176.246 242.803 186.226 251.195C193.19 257.051 202.055 261.089 211.124 262.122C218.933 263.011 227.145 262.824 235.004 262.842L268.686 262.827L373.446 262.808L725.375 262.776Z"></path>
	<path d="M762.193 174.189C770.715 174.748 778.014 176.2 784.992 181.389C793.41 187.649 799.002 196.64 800.415 207.066C801.759 216.99 799.588 227.436 793.412 235.42Q792.834 236.183 792.218 236.916Q791.602 237.648 790.951 238.35Q790.299 239.051 789.613 239.719Q788.927 240.386 788.209 241.019Q787.491 241.651 786.741 242.247Q785.992 242.843 785.214 243.401Q784.436 243.958 783.632 244.476Q782.827 244.994 781.997 245.471Q781.167 245.948 780.314 246.383Q779.462 246.818 778.588 247.21Q777.715 247.602 776.823 247.949Q775.931 248.297 775.023 248.6Q774.115 248.902 773.193 249.159Q772.271 249.416 771.337 249.626Q770.403 249.836 769.46 250Q768.517 250.163 767.567 250.279C757.55 251.432 746.714 249.05 738.748 242.697Q737.988 242.094 737.258 241.455Q736.528 240.816 735.83 240.142Q735.132 239.468 734.467 238.761Q733.803 238.054 733.173 237.315Q732.544 236.577 731.951 235.809Q731.358 235.041 730.803 234.245Q730.248 233.449 729.733 232.627Q729.217 231.805 728.742 230.959Q728.267 230.113 727.833 229.245Q727.4 228.377 727.009 227.489Q726.618 226.601 726.271 225.695Q725.924 224.789 725.621 223.867Q725.318 222.945 725.06 222.01Q724.802 221.075 724.59 220.128Q724.378 219.181 724.212 218.225Q724.046 217.269 723.927 216.306C722.574 223.649 720.368 230.644 715.581 236.523C709.661 243.793 701.883 247.303 692.644 248.179C684.687 248.933 676.425 248.561 668.43 248.599L633.857 248.893L522.747 248.678L397.071 248.858Q359.826 249.191 322.582 248.789C318.52 248.724 314.434 248.992 310.385 248.871C307.96 248.799 305.614 248.61 303.675 247.018L303.598 246.172C304.907 245.351 306.167 245.265 307.68 245.226C319.272 244.931 330.979 245.366 342.584 245.365L421.004 245.334L684.12 245.399C694.28 245.348 703.284 244.424 710.767 236.744C716.982 230.366 720.993 220.793 720.785 211.857C720.782 211.697 720.774 211.537 720.769 211.376Q720.664 209.921 720.501 208.471C719.025 195.635 710.905 183.871 698.382 179.682C689.743 176.792 665.744 178.119 655.619 178.165L605.125 178.378L335 178.134L255.869 178.051C246.289 178.039 236.519 178.558 226.971 178.297C225.656 178.261 224.582 177.806 223.591 176.931C222.97 176.384 223.105 176.59 223.029 175.883L223.803 175.368C231.772 174.479 240.156 174.979 248.179 175.004L289.881 175.104L432.747 175.032L607.616 175.034L662.464 175.01C672.377 174.997 682.606 174.452 692.471 175.205C698.485 175.664 703.812 177.918 708.652 181.465C717.549 187.986 721.939 197.01 723.67 207.713C725.025 199.755 727.998 192.537 733.489 186.518C741.303 177.954 750.83 174.706 762.193 174.189ZM765.756 247.518Q766.616 247.434 767.472 247.308Q768.327 247.181 769.175 247.013Q770.023 246.846 770.862 246.636Q771.701 246.427 772.529 246.177Q773.356 245.927 774.171 245.636Q774.985 245.346 775.784 245.016Q776.583 244.686 777.366 244.317Q778.148 243.949 778.911 243.542Q779.674 243.135 780.416 242.692Q781.158 242.248 781.878 241.769Q782.597 241.29 783.293 240.776Q783.988 240.262 784.657 239.714Q785.326 239.167 785.968 238.587Q786.609 238.008 787.222 237.398Q787.834 236.787 788.416 236.148Q788.998 235.508 789.548 234.841Q790.098 234.174 790.614 233.48Q791.13 232.787 791.612 232.069Q792.094 231.351 792.54 230.61Q792.986 229.87 793.395 229.108Q793.805 228.346 794.176 227.566Q794.548 226.785 794.88 225.987Q795.213 225.189 795.506 224.376Q795.8 223.562 796.053 222.735Q796.306 221.909 796.518 221.071Q796.73 220.232 796.901 219.385Q797.072 218.537 797.201 217.682Q797.33 216.828 797.418 215.967Q797.505 215.107 797.55 214.244Q797.594 213.38 797.597 212.516Q797.6 211.651 797.56 210.787Q797.52 209.924 797.438 209.063Q797.356 208.202 797.232 207.347Q797.108 206.491 796.942 205.642Q796.776 204.794 796.569 203.954Q796.361 203.115 796.113 202.287Q795.865 201.459 795.577 200.643Q795.288 199.828 794.96 199.028Q794.632 198.228 794.265 197.445Q793.898 196.663 793.494 195.899Q793.089 195.134 792.647 194.391Q792.206 193.648 791.728 192.927Q791.25 192.206 790.738 191.51Q790.226 190.813 789.68 190.143Q789.134 189.472 788.556 188.829Q787.978 188.186 787.369 187.572Q786.76 186.958 786.122 186.375Q785.484 185.792 784.818 185.24Q784.152 184.689 783.46 184.171Q782.768 183.653 782.051 183.169Q781.334 182.686 780.595 182.238Q779.855 181.79 779.095 181.379Q778.334 180.968 777.554 180.594Q776.774 180.221 775.977 179.886Q775.18 179.552 774.367 179.257Q773.554 178.961 772.728 178.706Q771.902 178.451 771.065 178.237Q770.227 178.023 769.38 177.85Q768.533 177.677 767.678 177.546Q766.823 177.414 765.964 177.325Q765.104 177.236 764.24 177.189Q763.377 177.142 762.512 177.137Q761.648 177.133 760.784 177.17Q759.92 177.208 759.059 177.288Q758.195 177.368 757.337 177.491Q756.478 177.613 755.627 177.778Q754.775 177.943 753.933 178.149Q753.091 178.355 752.259 178.603Q751.428 178.85 750.61 179.138Q749.792 179.426 748.989 179.754Q748.186 180.082 747.4 180.449Q746.614 180.816 745.848 181.221Q745.081 181.626 744.335 182.068Q743.589 182.51 742.865 182.989Q742.142 183.467 741.443 183.98Q740.744 184.494 740.071 185.041Q739.398 185.588 738.753 186.167Q738.108 186.747 737.492 187.357Q736.876 187.968 736.29 188.608Q735.705 189.248 735.152 189.916Q734.599 190.584 734.079 191.279Q733.56 191.973 733.075 192.692Q732.59 193.411 732.141 194.153Q731.692 194.895 731.281 195.659Q730.869 196.422 730.495 197.204Q730.121 197.987 729.786 198.787Q729.451 199.587 729.156 200.402Q728.86 201.218 728.606 202.047Q728.351 202.876 728.137 203.716Q727.923 204.557 727.751 205.407Q727.579 206.257 727.449 207.114Q727.318 207.972 727.23 208.834Q727.143 209.697 727.097 210.563Q727.052 211.429 727.049 212.297Q727.046 213.164 727.086 214.03Q727.126 214.897 727.208 215.76Q727.29 216.623 727.415 217.482Q727.54 218.34 727.706 219.191Q727.873 220.042 728.081 220.884Q728.29 221.726 728.539 222.556Q728.789 223.387 729.079 224.204Q729.369 225.022 729.698 225.824Q730.028 226.626 730.397 227.411Q730.766 228.196 731.172 228.962Q731.579 229.728 732.023 230.473Q732.468 231.217 732.948 231.94Q733.428 232.662 733.943 233.36Q734.458 234.057 735.007 234.729Q735.555 235.401 736.136 236.045Q736.717 236.688 737.329 237.303Q737.941 237.917 738.583 238.501Q739.224 239.085 739.894 239.636Q740.563 240.188 741.259 240.705Q741.954 241.223 742.675 241.706Q743.395 242.19 744.138 242.637Q744.881 243.084 745.645 243.494Q746.409 243.904 747.193 244.276Q747.976 244.648 748.777 244.981Q749.578 245.314 750.394 245.607Q751.21 245.9 752.04 246.153Q752.869 246.406 753.71 246.618Q754.551 246.83 755.402 247Q756.252 247.17 757.11 247.298Q757.968 247.426 758.831 247.512Q759.694 247.598 760.56 247.641Q761.426 247.685 762.293 247.685Q763.16 247.686 764.027 247.644Q764.893 247.602 765.756 247.518Z"></path>
	<path d="M180.478 677.464C180.772 677.47 181.071 677.437 181.362 677.483C182.509 677.663 183.009 677.812 183.622 678.765L183.275 679.649C178.618 683.707 155.073 692.423 148.24 695.013C147.546 695.214 147.228 695.16 146.525 695.073C145.949 694.017 145.573 693.777 145.714 692.547C150.126 688.854 173.171 680.457 180.478 677.464Z"></path>
	<path d="M136.589 627.838C142.531 628.52 171.135 630.831 173.874 634.011L173.7 635.825C169.671 636.35 141.275 632.798 137.346 631.365C136.376 629.983 136.573 629.488 136.589 627.838Z"></path>
	<path d="M342.1 401.769C345.324 402.208 346.265 403.624 348.294 406.065C350.792 409.07 361.938 422.493 362.328 425.525C362.41 426.163 362.214 426.807 362.156 427.447C360.012 427.263 359.343 427.08 357.799 425.455C354.225 421.695 344.699 409.556 342.536 405.028C342.014 403.933 342.052 402.957 342.1 401.769Z"></path>
	<path d="M818.508 481.918C819.187 481.891 819.556 481.89 820.196 482.17C820.901 482.479 820.883 482.92 821.174 483.59C819.361 487.431 801.156 496.88 796.699 499.12C795.426 499.315 794.832 499.102 793.657 498.607L793.548 498.145L794.135 498.99L793.687 497.622C796.103 493.266 813.464 484.689 818.508 481.918Z"></path>
	<path d="M790.063 568.771C794.728 568.978 812.784 577.541 817.244 580.132C818.079 581.518 817.827 581.764 817.563 583.308C817.414 583.32 817.266 583.339 817.116 583.344C813.255 583.49 793.335 574.689 790.687 571.895C789.759 570.917 790.047 570.024 790.063 568.771Z"></path>
	<path d="M797.347 536.976C806.602 537.005 816.508 538.271 825.72 539.359C827.965 539.624 830.282 539.637 831.764 541.518L831.401 542.851C830.766 542.912 830.156 542.966 829.517 542.965C824.82 542.96 799.576 541.421 797.127 538.997L797.347 536.976Z"></path>
	<path d="M311.798 439.788C316.288 440.521 330.62 448.189 334.266 451.124C334.884 452.708 334.497 453.03 333.938 454.588C329.34 453.557 315.103 446.079 311.349 443.015C310.898 441.466 311.2 441.235 311.798 439.788Z"></path>
</svg>
