<svg height="1024" width="1024" xmlns:xlink="http://www.w3.org/1999/xlink" xmlns="http://www.w3.org/2000/svg">
	<path d="M137.149 814.613C135.461 806.033 135.472 796.359 135.502 787.624C135.658 742.62 146.787 694.148 170.097 655.376C174.016 648.859 178.414 642.43 183.512 636.765C184.528 635.636 190.092 631.297 190.247 630.699C190.586 629.389 187.3 622.146 186.743 620.391C185.119 615.281 184.377 609.352 183.566 604.043C179.871 579.832 178.349 555.304 176.238 530.919C172.328 485.776 165.561 446.002 179.247 401.327C188.801 370.138 208.486 341.355 237.764 325.884C270.649 308.507 313.159 301.47 349.085 312.654C376.712 321.254 395.8 337.673 409.209 363.12C427.979 362.063 446.957 362.309 465.758 362.196L558.178 361.928L663.673 361.375C675.274 361.326 686.89 360.828 698.489 361.041L706.414 360.945C709.461 352.293 713.309 344.905 722.076 340.761C728.725 337.618 737.058 337.552 743.921 340.112C751.448 342.92 757.122 348.801 760.326 356.063C761.551 358.841 762.811 362.053 763.12 365.089C766.443 365.691 769.488 367.044 771.895 369.465C774.535 372.12 775.38 375.347 775.758 378.966C777.155 392.334 776.629 406.296 777.05 419.752L779.562 508.745L782.788 613.997C783.267 628.803 784.247 643.702 784.3 658.508C784.321 664.255 782.94 668.812 778.69 672.901C776.353 675.148 773.558 676.406 770.348 676.809C765.817 677.379 761.087 677.144 756.524 677.113C745.315 677.038 734.136 676.34 722.954 676.215L599.377 674.524C602.882 682.429 607.866 689.911 612.366 697.299C614.375 700.598 616.732 703.913 618.138 707.505C635.907 707.487 653.798 707.404 671.55 708.215C677.061 708.467 682.45 709.586 686.925 713.032C693.932 718.428 702.631 735.58 709.85 743.277L710.346 743.798C709.968 747.87 710.014 752.014 709.926 756.103C689.52 754.203 668.694 755.008 648.213 754.55L500.09 751.814C481.173 751.429 462.04 752.255 443.169 751.096Q443.408 745.501 443.566 739.904C449.071 733.253 454.322 726.464 459.563 719.606C462.766 715.414 465.902 710.569 469.702 706.927C475.199 705.275 507.519 706.495 515.44 706.508C540.753 706.552 566.161 706.153 591.46 706.831C599.377 707.043 607.396 706.707 615.279 707.455C608.028 696.867 601.756 686.102 595.907 674.68C576.883 673.733 557.522 675.587 538.577 674.034Q538.113 675.297 537.594 676.539C535.835 680.731 524.705 704.096 521.469 705.427L521.104 704.633C522.081 697.625 531.823 681.15 535.633 674.202C519.722 673.158 503.623 673.382 487.679 673.175L431.686 672.226L405.769 672.275C400.958 672.279 395.707 672.585 390.955 671.84C387.454 671.292 384.506 669.741 381.991 667.233C379.775 665.024 378.2 662.451 377.473 659.396C375.668 651.813 376.554 642.566 376.545 634.764L376.529 597.141C368.066 598.563 358.947 599.549 351.237 603.523C335.728 611.517 331.442 626.094 326.475 641.586C364.498 680.922 385.433 733.978 392.491 787.627C393.749 797.189 394.09 806.971 394.662 816.6C410.086 816.354 425.5 816.871 440.921 817.07L513.516 817.933L686.307 819.572L804.589 820.086Q820.146 820.247 835.703 820.213C841.728 820.172 848.137 819.6 854.119 820.22C855.936 820.408 858.016 820.639 859.24 822.126C857.43 823.24 853.944 822.917 851.747 822.967C808.072 823.964 764.224 822.38 720.54 822.192L402.868 819.155L240.34 816.269C205.966 815.729 171.502 815.978 137.149 814.613ZM747.907 392.062C742.244 394.962 734.677 395.638 728.528 394.367C721.472 392.909 714.83 388.59 710.898 382.567C707.049 384.469 702.496 384.681 698.269 384.87C685.789 385.431 673.138 384.994 660.645 384.954L594.905 384.676L415.812 384.504C416.928 393.2 418.228 401.965 418.72 410.724C419.924 432.14 417.761 453.832 415.323 475.095C413.802 488.352 411.309 501.628 410.736 514.983C409.937 533.565 414.134 552.575 411.813 570.959Q411.691 571.889 411.506 572.808Q411.321 573.728 411.074 574.633Q410.828 575.538 410.521 576.424Q410.213 577.31 409.847 578.174Q409.481 579.037 409.057 579.874Q408.633 580.71 408.154 581.517Q407.675 582.323 407.142 583.095Q406.61 583.867 406.026 584.601C404.97 585.917 403.788 587.118 402.572 588.283L402.636 588.905C403.628 599.599 401.176 641.836 403.731 647.485C413.394 648.879 424.084 648.119 433.871 648.189L488.542 648.815L675.32 650.864L726.377 651.454C736.756 651.515 747.275 651.17 757.628 651.698C755.966 638.616 757.11 624.685 756.821 611.462L754.423 528.133L750.735 424.987C750.248 414.025 747.92 402.958 747.907 392.062ZM139.728 811.871L247.625 813.527L354.986 815.54C366.437 815.705 377.886 816.172 389.339 816.164C386.276 764.816 374.357 714.487 343.555 672.288C337.186 663.562 330.262 654.923 322.154 647.748C306.423 633.829 290.893 626.745 271.134 620.299C258.152 633.872 241.652 644.877 222.324 645.281C212.057 645.496 202.593 642.641 195.134 635.371C194.323 634.58 193.573 633.727 192.837 632.865C155.353 673.29 137.055 743.786 139.06 797.924C139.231 802.517 139.885 807.296 139.728 811.871ZM471.307 709.022C463.393 719.581 455.39 730.05 446.763 740.043Q511.213 741.207 575.673 741.526C610.64 741.831 645.658 742.566 680.625 742.496C688.802 742.574 697.08 742.908 705.24 742.387C700.886 735.788 690.232 718.659 684.393 714.329C682.481 712.91 680.051 712.248 677.75 711.771C672.516 710.684 666.823 711.052 661.489 710.946L633.922 710.478Q581.146 709.608 528.362 709.533Q508.831 709.623 489.301 709.468C483.457 709.417 477.074 709.826 471.307 709.022ZM748.964 391.465C754.412 404.887 754.172 451.835 754.849 468.596Q758.654 561.587 760.059 654.646C747.742 654.87 735.389 654.28 723.065 654.233Q665.468 654.055 607.877 653.125Q504.481 652.727 401.111 650.382C399.679 643.602 399.175 596.982 400.395 589.654C393.652 593.104 386.583 595.021 379.258 596.824Q379.133 598.783 379.099 600.745C378.951 610.999 379.057 621.268 379.037 631.524C379.023 639.179 378.437 647.87 379.832 655.4C380.458 658.775 381.841 662.838 384.395 665.266C386.568 667.333 389.801 668.617 392.757 668.891C406.837 670.197 424.703 669.436 439.144 669.577L528.152 670.759L646.5 672.505C688.038 673.364 729.797 674.634 771.343 673.937C774.793 671.942 778.245 669.434 779.771 665.602C781.086 662.296 781.159 658.463 781.177 654.949C781.261 638.01 780.343 620.889 779.757 603.944L777.496 529.959L773.964 415.458C773.543 404.295 773.73 393.04 773.045 381.897C772.888 379.353 772.721 376.329 771.64 374.01C770.139 370.787 767.1 369.117 763.927 367.924L763.698 368.457C762.713 370.806 762.301 373.125 761.528 375.52C759.237 382.619 754.551 386.929 748.964 391.465ZM410.299 365.238C412.784 370.577 413.722 375.893 414.299 381.727C431.576 381.51 448.857 381.866 466.136 381.837L618.561 381.86L674.213 381.952C686.105 381.967 698.138 382.348 710 381.431C708.848 378.389 707.088 374.788 706.51 371.625C706.011 368.895 706.491 366.05 705.745 363.363L704.061 362.904C688.501 364.68 672.738 364.277 657.102 364.232L600.017 364.202Q505.162 365.353 410.299 365.238ZM298.392 623.015C307.698 627.619 316.13 632.773 323.817 639.787C323.202 630.166 329.677 617.475 335.932 610.425C356.663 587.059 400.158 602.248 408.13 573.277C410.117 566.055 409.472 557.717 409.088 550.279C408.373 536.419 407.345 522.856 408.222 508.941C408.998 496.632 411.033 484.442 412.606 472.223C416.036 445.589 418.235 417.874 413.457 391.299C413.208 389.913 412.593 383.14 411.938 382.538C401.716 389.858 392.504 404.822 383.121 414.475C360.905 437.331 334.932 455.495 307.747 471.839C306.151 487.102 305.192 502.221 304.376 517.542C302.458 553.536 300.656 586.515 275.857 615.152C283.49 617.619 291.006 619.814 298.392 623.015ZM706.984 751.51C706.956 749.717 707.215 747.361 706.393 745.743C699.002 745.177 691.388 745.647 683.963 745.632L638.768 745.447L509.727 744.055Q487.387 743.945 465.05 743.542C459.149 743.445 451.892 744.091 446.165 743.064C446.011 744.644 445.622 746.479 446.205 747.988C448.854 748.996 501.225 749.302 508.795 749.445Q577.531 751.151 646.284 751.831C665.639 752.105 685.09 752.863 704.439 752.7C705.272 752.693 705.889 752.55 706.657 752.238L706.984 751.51ZM732.769 366.381Q728.113 366.117 723.452 365.956C726.657 369.539 731.421 377.105 734.922 379.656L735.927 379.133C740.238 375.44 742.463 370.188 746.359 366.17C742.976 366.121 739.332 366.318 736.023 365.62C734.163 362.162 738.918 352.833 734.52 351.084C734.015 350.883 732.977 350.886 732.475 350.848C732.423 355.979 732.089 361.289 732.769 366.381Z" fill="#070507"></path>
	<path d="M465.302 443.659C477.45 442.491 491.245 443.58 503.481 443.985C519.289 444.508 535.211 444.774 551.028 444.897L640.151 445.9L675.598 445.969C682.807 445.984 690.189 445.727 697.37 446.37C701.475 446.737 705.664 447.861 708.842 450.608C713.008 454.21 714.255 459.236 714.577 464.501C715.086 472.813 716.885 489.473 715.453 497.239C714.849 500.513 713.457 503.528 711.185 505.979C707.994 509.422 703.254 511.235 698.625 511.5C688.346 511.538 678.044 511.003 667.75 511.011Q594.129 511.18 520.513 510.217C508.076 509.946 495.597 510.131 483.155 510.1C476.972 510.084 470.66 510.314 464.501 509.754C460.594 509.399 457.234 508.547 454.009 506.183C449.935 503.197 448.173 499.193 447.426 494.305C446.129 485.826 445.885 464.545 447.716 456.15C448.24 453.746 449.192 451.454 450.722 449.514C454.498 444.727 459.684 444.283 465.302 443.659ZM699.491 508.741C703.749 507.848 707.716 506.52 710.275 502.756C711.606 500.799 712.284 498.524 712.604 496.197C713.221 491.706 712.528 464.211 711.53 460.01C710.713 456.574 708.88 453.561 705.771 451.775C701.727 449.451 696.276 449.39 691.74 449.15C672.412 448.128 652.803 448.689 633.44 448.614L553.417 447.88C523.241 447.729 492.822 445.567 462.671 446.67C458.499 447.483 455.097 448.512 452.557 452.23C451.13 454.32 450.435 456.728 450.005 459.196C448.81 466.075 448.912 487.921 450.33 494.751C451.057 498.256 452.714 502.459 455.977 504.364C459.457 506.396 464.226 507.052 468.216 507.25C480.137 507.843 492.301 507.363 504.247 507.4L577.805 507.814L659.657 508.529C672.898 508.621 686.256 509.465 699.491 508.741Z" fill="#070507"></path>
	<path d="M493.422 463.022C494.543 463.052 495.669 463.153 496.789 463.223C498.168 464.617 507.413 486.203 507.61 488.176L506.508 488.728C502.801 487.541 503.828 482.269 500.018 480.508L490.404 480.772C489.398 483.579 488.447 487.363 485.666 488.899C484.743 480.983 490.904 471.271 493.211 463.725L493.422 463.022ZM495.977 477.975C497.136 477.958 498.679 478.13 499.782 477.852L499.064 477.795C499.371 477.289 499.739 477.009 499.609 476.397C499.022 473.63 496.878 469.311 495.503 466.72L492.508 473.043C491.86 474.392 491.696 475.237 491.697 476.738L492.234 477.71C493.543 478.056 494.645 478.032 495.977 477.975Z" fill="#070507"></path>
	<path d="M543.034 462.632L544.542 462.976C546.516 464.787 553.636 481.526 554.807 484.91C555.247 486.178 555.268 486.841 554.689 488.021L553.458 488.29C551.496 487.326 551.065 483.852 549.836 482.159C548.879 480.841 547.882 481.134 546.425 481.062L538.718 481.471C538.067 483.237 537.21 487.164 535.806 488.237C534.637 488.063 534.425 488.276 533.62 487.341C534.79 481.784 540.081 467.319 543.034 462.632ZM539.837 478.489L546.125 478.504L547.891 478.27C548.293 475.863 545.486 470.346 544.059 468.418C543.884 468.18 543.673 467.972 543.48 467.749C542.252 471.305 540.873 474.875 539.837 478.489Z" fill="#070507"></path>
	<path d="M632.776 470.575C632.909 470.564 633.04 470.549 633.173 470.543C635.286 470.444 637.538 470.543 639.157 472.092C642.834 475.613 642.571 483.941 642.641 488.705C639.356 489.686 640.685 488.261 638.479 487.301C637.542 487.495 636.726 487.674 635.845 488.059C635.615 488.159 635.388 488.267 635.158 488.366C632.756 489.402 631.381 488.731 629.053 487.786Q628.698 487.203 628.384 486.597C627.437 484.792 627.062 483.443 627.691 481.448C629.842 478.62 632.982 478.923 636.106 478.053C637.45 477.679 637.976 477.514 638.639 476.281C638.479 475.775 638.34 475.256 638.069 474.793C636.074 471.389 630.815 474.558 627.976 473.703L627.891 472.89C629.18 471.326 630.897 471.083 632.776 470.575ZM636.729 486.055C637.902 485.213 638.558 484.851 639.056 483.433C638.871 482.183 638.75 481.895 637.629 481.117C636.322 480.209 634.363 480.494 632.853 480.557C631.497 481.555 631.04 481.767 630.358 483.354C630.709 484.472 631.097 485.045 632.226 485.542C633.727 486.203 635.131 486.145 636.729 486.055Z" fill="#070507"></path>
	<path d="M647.333 470.493C647.984 470.732 648.371 470.928 648.91 471.385C649.198 471.628 650.249 472.684 650.578 472.75C652.802 473.195 656.129 470.108 658.918 470.812C659.881 471.055 660.447 471.459 661.027 472.228C663.285 475.222 663.353 484.574 662.789 488.21C661.968 489.23 661.972 489.161 660.67 489.38L660.006 488.819C659.129 486.342 659.676 483.557 659.659 480.955C659.569 479.132 659.582 477.19 658.538 475.618C657.705 474.365 656.768 473.743 655.296 473.395C654.147 473.6 653.467 473.811 652.537 474.549C648.762 477.544 650.81 484.52 650.321 488.901L649.724 489.368L648.785 488.754C646.563 484.18 647.289 475.616 647.333 470.493Z" fill="#070507"></path>
	<path d="M601.951 470.574C604.264 470.371 607.381 470.052 609.556 471.071C610.583 471.552 610.446 471.974 610.752 472.939C608.605 474.095 605.346 473.263 602.926 473.713C601.787 473.925 601.653 473.91 600.969 474.882C601.011 475.02 601.038 475.162 601.095 475.294C602.198 477.862 606.418 478.393 608.774 479.363C610.366 480.018 611.385 480.743 612.062 482.387C612.075 483.124 612.056 483.712 611.715 484.385C610.581 486.625 609.355 487.674 607.013 488.516C604.802 488.641 601.793 488.902 599.979 487.318C598.947 486.416 598.901 485.945 598.974 484.716L599.956 484.406C601.416 485.03 603.111 485.842 604.739 485.772C606.468 485.698 607.027 485.347 608.218 484.148C608.273 481.192 600.32 479.648 598.139 477.148C597.946 476.436 597.605 475.79 597.826 475.053C598.422 473.061 600.296 471.668 601.951 470.574Z" fill="#070507"></path>
	<path d="M581.691 470.126C581.941 470.157 582.194 470.166 582.441 470.218C584.094 470.568 585.268 471.745 586.107 473.16L585.92 473.579C585.076 474.037 584.653 474.014 583.713 474.059C582.466 473.458 581.352 472.973 580.01 472.601C578.722 472.961 578.235 473.249 577.342 474.246C577.416 477.22 585.274 479.053 587.241 482.362C587.307 483.771 587.352 484.164 586.492 485.374C584.622 488.003 581.959 488.325 579.029 488.743C577.106 488.088 575.567 487.607 574.119 486.129L574.159 485.263C575.826 484.448 579.685 485.482 581.717 485.422C582.7 484.638 583.368 484.246 583.744 482.995C582.425 480.303 578.172 480.636 575.818 479.435C574.875 478.955 573.938 477.631 573.795 476.56C573.619 475.245 573.916 474.256 574.74 473.235C576.506 471.047 579.05 470.456 581.691 470.126Z" fill="#070507"></path>
	<path d="M563.68 469.964C564.004 469.982 564.328 470.017 564.651 470.051C566.891 470.281 569.41 470.528 570.908 472.398C568.063 473.945 564.072 472.18 561.464 474.679C562.45 477.928 568.563 477.398 570.899 480.452C571.346 482.036 571.171 483.051 570.435 484.478C569.041 487.186 567.59 487.724 564.829 488.674C563.803 488.63 562.734 488.61 561.742 488.313C560.184 487.848 559.061 486.767 558.415 485.302L558.887 484.294C560.741 483.977 561.45 484.826 563.18 485.376C564.339 485.744 565.484 485.788 566.529 485.05C567.69 484.229 567.747 483.732 567.901 482.446C566.317 478.968 562.014 480.076 559.263 477.982C558.579 476.653 558.301 475.94 558.864 474.424C559.783 471.951 561.363 470.994 563.68 469.964Z" fill="#070507"></path>
	<path d="M669.299 466.224L670.394 466.564C671.431 468.013 671.35 468.859 671.538 470.605C672.836 471.502 674.386 470.945 675.924 471.365C676.687 471.573 676.625 471.82 676.985 472.455C675.897 473.55 673.761 473.645 672.265 473.909C672.218 474.037 672.161 474.161 672.124 474.293C671.332 477.115 671.443 482.163 672.97 484.694C674.098 485.627 675.098 485.516 676.485 485.538C677.294 485.551 677.292 485.696 677.919 486.158L678.046 488.306C676.833 488.584 675.583 488.902 674.338 488.979C672.831 489.072 671.272 488.731 670.261 487.504C667.986 484.74 668.935 477.439 668.954 474.044C666.35 473.917 663.979 473.432 661.454 472.847C663.587 472.049 665.816 471.753 667.912 470.905C668.781 469.56 668.451 468.331 669.006 466.891C669.093 466.664 669.202 466.446 669.299 466.224Z" fill="#070507"></path>
	<path d="M616.224 465.116L618.236 465.597C619.292 466.908 619.044 468.329 619.155 469.984C620.455 471.218 622.194 470.966 623.949 471.121L624.46 471.78L624.194 472.772C622.644 473.077 621.359 473.219 620.127 474.299C618.961 476.407 618.814 480.359 619.278 482.717C619.829 485.519 622.921 484.707 624.713 486.066C624.902 486.21 625.068 486.383 625.246 486.542C624.895 487.317 624.553 487.849 623.991 488.487C622.666 488.904 621.62 489.224 620.215 488.808C614.365 487.073 617.748 477.762 615.626 473.461C614.474 473.227 613.451 473.127 612.558 472.293C613.048 471.332 614.864 470.687 615.853 470.144C615.894 468.45 616.027 466.799 616.224 465.116Z" fill="#070507"></path>
	<path d="M590.421 462.264C590.862 462.389 591.516 462.553 591.908 462.767C593.214 463.482 593.266 463.973 593.608 465.302C590.721 471.778 595.525 480.33 594.254 487.199C593.995 488.598 593.264 488.68 592.112 489.343C591.993 489.217 591.864 489.101 591.756 488.966C590.509 487.406 589.774 474.893 590.207 472.507C590.518 470.791 591.567 469.89 591.696 468.048C591.243 467.349 590.878 466.924 590.233 466.37C590.03 466.195 589.818 466.03 589.611 465.86C589.281 464.493 589.887 463.489 590.421 462.264Z" fill="#070507"></path>
	<path d="M513.22 468.375C513.632 468.827 514.037 469.28 514.402 469.772C516.858 473.089 515.883 484.747 515.196 488.884C514.074 488.565 513.952 488.538 513.2 487.657C512.297 482.383 511.552 473.419 513.22 468.375Z" fill="#070507"></path>
	<path d="M535.303 555.681C552.345 555.096 569.484 555.944 586.542 555.986C599.57 556.017 616.278 555.161 628.859 556.165C631.208 556.353 634.282 556.516 636.102 558.166C642.913 564.342 641.214 577.042 641.394 585.512C641.487 589.902 641.913 595.642 638.473 598.97C636.011 601.352 633.389 601.17 630.213 601.131C597.048 600.744 563.832 601.184 530.677 600.465C528.31 599.085 525.476 597.177 524.32 594.599C522.253 589.99 522.698 570.668 523.599 565.235C523.912 563.349 524.633 561.591 525.363 559.836C528.577 557.258 531.209 556.186 535.303 555.681ZM582.963 587.554Q583.156 587.487 583.345 587.411Q583.534 587.335 583.719 587.25Q583.904 587.165 584.085 587.071Q584.265 586.977 584.441 586.874Q584.617 586.771 584.787 586.659Q584.958 586.548 585.123 586.428Q585.288 586.308 585.446 586.18Q585.605 586.052 585.757 585.917Q585.91 585.782 586.055 585.639Q586.2 585.496 586.339 585.346Q586.477 585.197 586.607 585.04Q586.738 584.884 586.861 584.721Q586.984 584.559 587.098 584.39Q587.213 584.222 587.319 584.048Q587.425 583.874 587.523 583.695Q587.621 583.516 587.709 583.333Q587.798 583.149 587.877 582.962Q587.957 582.774 588.027 582.583Q588.097 582.391 588.157 582.197Q588.218 582.002 588.269 581.805Q588.32 581.608 588.361 581.408Q588.402 581.209 588.434 581.007Q588.465 580.806 588.486 580.603Q588.508 580.401 588.519 580.197Q588.53 579.994 588.532 579.79Q588.533 579.586 588.524 579.383Q588.516 579.179 588.497 578.976Q588.478 578.773 588.449 578.572Q588.421 578.37 588.382 578.17Q588.344 577.97 588.295 577.772Q588.247 577.574 588.189 577.379Q588.131 577.183 588.063 576.991Q587.995 576.799 587.918 576.61Q587.841 576.422 587.755 576.237Q587.669 576.052 587.574 575.872Q587.479 575.692 587.375 575.517Q587.271 575.341 587.158 575.171Q587.046 575.001 586.925 574.837Q586.804 574.673 586.676 574.515Q586.547 574.357 586.411 574.205Q586.275 574.054 586.131 573.909Q585.988 573.765 585.837 573.627Q585.687 573.49 585.529 573.36Q585.372 573.23 585.209 573.108Q585.046 572.986 584.877 572.873Q584.708 572.759 584.533 572.654Q584.359 572.548 584.179 572.452Q584 572.355 583.816 572.268Q583.632 572.18 583.444 572.102Q583.256 572.023 583.064 571.954Q582.872 571.885 582.677 571.826Q582.483 571.766 582.285 571.716Q582.087 571.666 581.888 571.626Q581.688 571.586 581.486 571.556Q581.285 571.526 581.082 571.505Q580.879 571.485 580.676 571.475Q580.472 571.465 580.268 571.465Q580.065 571.464 579.861 571.474Q579.658 571.484 579.455 571.504Q579.252 571.524 579.05 571.554Q578.849 571.583 578.649 571.623Q578.449 571.663 578.251 571.712Q578.054 571.762 577.859 571.821Q577.664 571.88 577.472 571.949Q577.281 572.017 577.094 572.095Q576.908 572.172 576.725 572.259Q576.542 572.345 576.363 572.44Q576.185 572.536 576.011 572.64Q575.838 572.744 575.669 572.856Q575.501 572.968 575.338 573.089Q575.176 573.209 575.019 573.337Q574.863 573.465 574.713 573.601Q574.562 573.737 574.419 573.88Q574.276 574.023 574.14 574.172Q574.004 574.322 573.875 574.478Q573.746 574.635 573.626 574.797Q573.505 574.959 573.392 575.127Q573.279 575.295 573.175 575.469Q573.07 575.642 572.975 575.82Q572.879 575.998 572.792 576.181Q572.705 576.364 572.627 576.55Q572.549 576.737 572.48 576.927Q572.412 577.118 572.352 577.311Q572.293 577.505 572.243 577.701Q572.193 577.897 572.153 578.095Q572.113 578.294 572.083 578.494Q572.052 578.694 572.032 578.895Q572.011 579.096 572 579.298Q571.99 579.5 571.989 579.703Q571.988 579.905 571.997 580.107Q572.006 580.309 572.025 580.511Q572.044 580.712 572.073 580.913Q572.102 581.113 572.14 581.312Q572.179 581.51 572.227 581.707Q572.275 581.903 572.333 582.097Q572.391 582.291 572.458 582.482Q572.525 582.673 572.602 582.86Q572.678 583.048 572.763 583.231Q572.849 583.414 572.943 583.593Q573.038 583.772 573.141 583.947Q573.244 584.121 573.355 584.29Q573.466 584.458 573.586 584.622Q573.705 584.785 573.833 584.942Q573.96 585.1 574.095 585.25Q574.23 585.401 574.372 585.545Q574.514 585.689 574.663 585.826Q574.812 585.963 574.967 586.093Q575.123 586.222 575.285 586.344Q575.446 586.466 575.614 586.579Q575.781 586.693 575.954 586.798Q576.127 586.904 576.304 587Q576.482 587.097 576.664 587.185Q576.846 587.273 577.033 587.352Q577.219 587.431 577.409 587.501Q577.599 587.571 577.792 587.631Q577.985 587.691 578.181 587.742Q578.377 587.793 578.575 587.834Q578.773 587.876 578.973 587.907Q579.173 587.939 579.374 587.96Q579.575 587.982 579.777 587.994Q579.979 588.006 580.181 588.008Q580.384 588.01 580.586 588.002Q580.788 587.994 580.99 587.976Q581.191 587.958 581.392 587.93Q581.592 587.903 581.791 587.865Q581.99 587.828 582.186 587.781Q582.383 587.733 582.578 587.677Q582.772 587.62 582.963 587.554Z" fill="#070507"></path>
	<path d="M577.909 574.98C578.177 574.97 578.445 574.957 578.713 574.951C580.833 574.903 582.619 575.38 584.117 576.952C585.232 578.123 585.626 579.341 585.519 580.935C585.381 582.992 583.967 584.278 582.467 585.482Q581.443 585.521 580.422 585.438C578.667 585.31 577.136 584.315 576.104 582.916C575.241 581.747 574.966 580.434 575.179 579.02C575.474 577.059 576.385 576.148 577.909 574.98Z" fill="#070507"></path>
	<path d="M698.933 576.16C705.273 575.775 711.053 576.748 716.345 580.511C722.526 584.907 726.348 591.829 727.573 599.229C728.847 606.922 727.718 615.602 722.952 621.969C718.492 627.928 712.716 630.276 705.622 631.36C699.472 632.01 693.554 630.957 688.36 627.471C682.59 623.599 678.425 617.644 677.187 610.778C675.683 602.434 677.707 593.135 682.614 586.212C686.655 580.512 692.068 577.26 698.933 576.16ZM706.255 628.025C712.476 626.754 717.333 624.491 721.006 619.036C724.906 613.244 725.903 606.274 724.551 599.498C723.212 592.786 719.38 586.147 713.554 582.421C709.339 579.726 704.28 578.743 699.332 579.142C692.91 580.536 687.923 584.168 684.392 589.73C680.625 595.665 678.558 603.616 680.101 610.549C681.403 616.401 685.181 621.368 690.251 624.504C695.24 627.59 700.498 628.342 706.255 628.025Z" fill="#070507"></path>
	<path d="M692.299 605.16C694.461 605.532 696.534 608.025 698.462 609.165C704.044 612.465 707.286 608.016 712.442 606.742C713.359 607.591 713.272 607.585 713.375 608.845L713.063 609.196C710.304 612.238 707.439 613.244 703.318 613.362C700.028 613.456 696.317 612.803 693.964 610.304C692.415 608.658 692.164 607.37 692.299 605.16Z" fill="#070507"></path>
	<path d="M712.683 590.18C712.736 590.205 712.787 590.233 712.842 590.256C713.607 590.575 714.757 590.896 715.389 591.419C716.446 592.293 716.456 592.894 716.584 594.137C715.99 595.68 715.194 596.389 713.994 597.446C713.583 597.377 712.771 597.038 712.448 596.827C711.43 596.167 710.845 595.416 710.74 594.189C710.595 592.502 711.681 591.367 712.683 590.18Z" fill="#070507"></path>
	<path d="M691.686 589.681C691.976 589.752 692.268 589.816 692.557 589.893C693.871 590.246 694.878 591.017 695.412 592.31C696.141 594.071 695.506 595.537 694.706 597.088C693.622 597.039 692.816 596.77 691.802 596.398C690.865 595.503 690.362 594.915 690.252 593.573C690.126 592.028 690.793 590.854 691.686 589.681Z" fill="#070507"></path>
	<path d="M465.749 621.351Q465.859 621.235 465.983 621.135Q466.107 621.036 466.243 620.953Q466.379 620.87 466.525 620.807Q466.671 620.743 466.824 620.699Q466.978 620.655 467.135 620.632Q467.293 620.609 467.452 620.607Q467.612 620.605 467.77 620.625Q467.928 620.644 468.082 620.684Q468.236 620.724 468.384 620.785Q468.531 620.845 468.669 620.924Q468.807 621.004 468.934 621.101Q469.06 621.198 469.172 621.31Q469.285 621.423 469.381 621.55Q469.477 621.677 469.556 621.816Q469.635 621.954 469.694 622.102Q469.754 622.25 469.793 622.404Q469.832 622.558 469.851 622.716Q469.869 622.875 469.867 623.034Q469.864 623.193 469.84 623.35Q469.817 623.508 469.772 623.661Q469.728 623.814 469.664 623.959Q469.599 624.105 469.516 624.241Q469.433 624.377 469.332 624.5Q469.232 624.624 469.116 624.733Q469.032 624.812 468.941 624.882Q468.85 624.953 468.753 625.014Q468.655 625.075 468.552 625.127Q468.449 625.179 468.342 625.22Q468.235 625.262 468.124 625.293Q468.013 625.324 467.899 625.344Q467.786 625.364 467.671 625.373Q467.556 625.383 467.441 625.381Q467.326 625.379 467.212 625.366Q467.097 625.353 466.985 625.329Q466.872 625.305 466.762 625.27Q466.653 625.236 466.547 625.191Q466.441 625.146 466.34 625.091Q466.238 625.036 466.143 624.971Q466.048 624.906 465.959 624.833Q465.87 624.76 465.789 624.678Q465.708 624.596 465.635 624.507Q465.562 624.418 465.498 624.323Q465.434 624.227 465.379 624.126Q465.324 624.024 465.28 623.918Q465.235 623.812 465.201 623.702Q465.167 623.592 465.144 623.479Q465.12 623.367 465.108 623.252Q465.095 623.138 465.094 623.023Q465.092 622.907 465.102 622.793Q465.112 622.678 465.133 622.565Q465.153 622.452 465.185 622.341Q465.216 622.23 465.258 622.123Q465.3 622.016 465.352 621.913Q465.405 621.81 465.466 621.713Q465.528 621.616 465.599 621.525Q465.67 621.435 465.749 621.351Z" fill="#070507"></path>
	<path d="M456.654 621.319Q456.727 621.244 456.807 621.175Q456.887 621.107 456.974 621.047Q457.06 620.986 457.151 620.934Q457.242 620.882 457.338 620.839Q457.434 620.796 457.534 620.761Q457.633 620.727 457.736 620.703Q457.838 620.678 457.942 620.663Q458.046 620.649 458.151 620.644Q458.256 620.638 458.361 620.643Q458.466 620.648 458.571 620.663Q458.675 620.678 458.777 620.702Q458.879 620.726 458.979 620.76Q459.079 620.794 459.174 620.837Q459.27 620.88 459.362 620.932Q459.453 620.984 459.54 621.045Q459.626 621.105 459.706 621.173Q459.786 621.241 459.86 621.317Q459.933 621.392 459.999 621.474Q460.065 621.556 460.123 621.643Q460.181 621.731 460.231 621.824Q460.28 621.917 460.321 622.014Q460.361 622.111 460.393 622.211Q460.424 622.312 460.446 622.415Q460.467 622.518 460.479 622.622Q460.491 622.727 460.494 622.832Q460.496 622.937 460.488 623.042Q460.48 623.147 460.463 623.251Q460.445 623.354 460.418 623.456Q460.39 623.558 460.354 623.656Q460.317 623.755 460.271 623.85Q460.226 623.945 460.171 624.035Q460.117 624.125 460.054 624.209Q459.963 624.332 459.856 624.441Q459.749 624.55 459.628 624.644Q459.508 624.737 459.375 624.814Q459.243 624.89 459.102 624.948Q458.96 625.005 458.812 625.043Q458.664 625.081 458.512 625.099Q458.36 625.116 458.208 625.113Q458.055 625.109 457.904 625.085Q457.753 625.061 457.607 625.016Q457.461 624.972 457.322 624.908Q457.183 624.844 457.054 624.762Q456.925 624.68 456.809 624.581Q456.693 624.482 456.591 624.368Q456.489 624.254 456.403 624.127Q456.318 624 456.251 623.863Q456.183 623.726 456.135 623.581Q456.087 623.436 456.059 623.286Q456.031 623.136 456.024 622.983Q456.017 622.831 456.03 622.678Q456.044 622.526 456.078 622.377Q456.112 622.229 456.166 622.086Q456.22 621.943 456.293 621.809Q456.366 621.674 456.457 621.552Q456.548 621.429 456.654 621.319Z" fill="#070507"></path>
	<path d="M474.468 621.383C474.675 621.376 474.881 621.362 475.088 621.363C476.646 621.366 477.609 621.5 478.739 622.617C478.87 624.091 478.73 624.223 477.992 625.528C476.816 625.367 476.055 624.984 475.019 624.42C474.275 623.081 474.323 622.923 474.468 621.383Z" fill="#070507"></path>
	<path d="M397.432 528.285C399.282 528.06 402.031 527.604 403.766 528.319C404.795 528.744 405.543 530.113 405.964 531.131C407.91 535.85 406.777 542.744 404.915 547.406C402.626 553.14 398.204 557.941 392.386 560.165C386.051 562.589 379.208 561.838 373.116 559.145C368.448 556.305 364.132 552.445 362.254 547.149C361.169 544.09 359.799 535.687 361.771 532.971C364.078 529.793 392.121 528.666 397.432 528.285ZM363.786 534.048C365.589 538.208 367.089 541.011 371.507 542.808C378.402 544.721 390.915 543.295 397.238 539.834C401.312 537.604 402.459 535.333 403.848 531.092L397.355 531.282C386.235 532.56 374.819 532.382 363.786 534.048Z" fill="#070507"></path>
	<path d="M371.295 444.679C376.815 444.101 383.452 444.548 387.844 448.288C389.532 449.725 390.488 451.195 390.649 453.433C390.125 454.751 389.993 455.19 388.749 455.992C385.945 457.8 381.969 456.811 378.934 456.293L378.453 456.267C378.185 456.255 377.918 456.249 377.65 456.235C372.754 455.988 366.422 457.911 361.88 456.44C360.357 455.946 359.807 455.164 359.113 453.787C359.07 452.026 359.38 450.874 360.467 449.49C363.321 445.853 367.009 445.278 371.295 444.679Z" fill="#070507"></path>
	<path d="M369.803 474.958C370.863 475.047 371.898 475.223 372.897 475.599C374.83 476.327 376.083 478.244 376.868 480.069C378.54 483.955 378.516 489.231 376.918 493.132C375.843 495.755 374.535 496.624 371.979 497.681C371.836 497.674 371.693 497.671 371.55 497.66C371.314 497.642 371.078 497.617 370.842 497.597C369.662 497.499 368.631 497.413 367.599 496.769C364.975 495.131 363.513 491.88 362.972 488.945C362.3 485.3 362.508 480.779 364.773 477.678C366.158 475.782 367.556 475.346 369.803 474.958Z" fill="#070507"></path>
	<path d="M484.068 718.581C499.298 719.249 514.674 719.043 529.921 719.104L575.596 719.554L670.688 720.513C672.721 723.462 674.384 726.786 675.8 730.072C676.296 731.222 676.868 732.329 676.373 733.511C674.495 732.946 672.62 732.463 670.708 732.026C650.209 731.976 478.333 730.484 475.38 728.853C474.807 728.537 474.884 727.874 474.761 727.286C475.996 723.581 480.749 720.399 484.068 718.581Z" fill="#070507"></path>
	<path d="M495.231 267.228C498.456 267.11 501.801 266.963 505 267.463C509.258 268.13 513.663 270.063 516.252 273.63C517.896 275.894 519.003 278.469 519.741 281.158C521.634 288.061 523.681 312.605 522.505 319.5C521.387 326.049 518.209 330.446 512.016 333.006C506.704 335.202 499.979 334.875 494.292 335.177L462.079 337.113C455.053 337.547 447.318 337.27 440.539 339.123C436.976 340.098 434.48 341.801 431.55 343.942C429.221 345.594 426.714 347.623 424.128 348.829C422.863 349.418 422.169 349.581 420.859 349.14C419.511 346.194 422.303 339.74 423.268 336.591C416.545 330.182 414.162 324.203 413.201 315.179C412.778 311.201 412.62 307.19 412.27 303.204C411.527 294.735 409.438 284.574 415.483 277.501C417.586 275.041 420.452 273.064 423.566 272.143C430.22 270.174 438.237 270.411 445.157 269.98C461.831 268.943 478.587 268.579 495.231 267.228ZM423.116 346.206C425.795 344.638 428.251 342.966 430.714 341.077C432.781 339.603 435.263 337.434 437.68 336.657C441.773 335.343 446.816 335.434 451.126 335.104C464.521 334.082 477.939 333.543 491.345 332.7C496.357 332.385 501.834 332.567 506.741 331.671C509.288 331.205 511.859 330.407 514.059 329.011C517.358 326.92 518.973 322.899 519.644 319.193C520.843 312.563 518.93 289.594 517.316 282.495C516.732 279.927 515.831 277.336 514.296 275.17C512.078 272.039 508.092 270.36 504.412 269.8C501.17 269.305 497.808 269.579 494.547 269.736L493.762 269.844C487.485 270.683 481.077 270.668 474.755 271.029L440.947 273.216C435.507 273.593 429.521 273.165 424.286 274.792C421.487 275.661 418.796 277.925 417.059 280.242C411.772 287.296 414.862 309.295 416.369 317.883C416.816 320.431 417.259 323.668 418.411 325.995C419.981 329.169 426.054 333.753 426 336.951C425.955 339.626 424.005 343.584 423.116 346.206Z" fill="#070507"></path>
	<path d="M466.844 278.333C467.391 278.49 467.699 278.552 468.22 278.817C470.649 280.053 470.488 282.393 471.361 284.605C471.864 285.879 472.659 286.155 473.832 286.691C475.916 286.587 477.173 285.357 478.97 284.507C480.029 284.006 481.168 283.876 482.249 284.424C483.457 285.035 484.019 286.163 484.569 287.308C484.772 290.309 482.592 291.174 481.588 293.605C481.078 294.841 481.441 295.458 481.851 296.622C483.568 298.211 485.546 298.015 487.583 298.859C488.689 299.318 489.458 300.111 489.775 301.294C491.791 308.824 481.76 305.942 479.144 309.926C479.604 312.845 483.037 313.551 483.8 316.35C482.229 318.004 480.542 319.342 478.634 320.578C476.285 322.099 473.281 323.67 470.412 323.051C468.988 322.064 468.793 320.627 468.343 319.054C460.874 318.428 462.58 323.742 457.515 324.016C456.16 324.09 455.481 323.635 454.492 322.812C453.771 320.602 454.655 318.306 454.761 316.015C453.638 315.062 452.458 315.334 451.011 315.286C450.123 315.257 448.937 315.353 448.085 315.115C446.715 314.733 446.64 314.421 446.108 313.237C446.281 310.244 448.444 307.621 450.113 305.255C448.645 304.613 446.482 303.92 445.298 302.812C444.322 301.899 444.221 301.292 444.053 300.062C445.222 297.161 448.293 296.333 450.943 295.169C450.256 292.895 448.81 289.582 449.235 287.213C449.486 285.816 449.866 285.511 450.88 284.647C454.413 283.851 457.254 285.774 460.313 287.312C462.116 283.612 463.423 280.843 466.844 278.333ZM454.311 296.544C452.118 297.165 447.93 297.967 446.618 299.817L446.89 300.34C448.761 300.499 450.552 300.37 452.422 300.236L452.543 300.564C451.321 301.09 449.092 300.576 448.424 301.448C449.085 301.873 449.584 302.07 450.318 302.363C451.457 302.817 451.854 303.306 452.659 304.188C452.981 305.516 453.027 305.63 452.29 306.861C451.282 308.547 449.143 310.126 448.841 312.063C451.62 313.944 454.786 310.993 457.389 314.529C457.772 316.973 455.992 319.058 456.426 321.569L457.18 321.887C460.194 320.633 460.492 316.725 464.128 316.259Q467.669 316.255 471.208 316.143C471.84 317.664 471.277 319.297 472.513 320.358C475.383 319.221 478.144 317.837 480.924 316.498C479.153 314.883 477.012 313.432 476.923 310.817C476.871 309.271 477.561 308.076 478.742 307.117C480.007 306.09 486.923 303.547 487.112 302.564C482.304 298.343 483.035 304.456 478.629 295.814C479.177 294.146 482.072 288.408 481.525 287.071C477.897 287.562 473.668 290.88 470.178 288.395C467.681 286.616 469.213 282.852 466.569 280.715C465.436 283.216 464.424 286.577 462.378 288.414C458.827 289.646 455.085 286.854 452.066 287.947C451.712 289.644 453.68 294.557 454.311 296.544Z" fill="#070507"></path>
	<path d="M464.548 292.185C468.845 292.487 471.074 293.445 474.156 296.497L475.65 301.605C475.155 303.423 474.608 305.118 473.625 306.741C471.607 310.074 468.848 310.91 465.293 311.738L465.249 312.005C463.582 311.012 461.562 311.065 459.805 309.941C457.575 308.516 456.214 306.144 455.785 303.561C455.31 300.708 455.969 297.692 457.755 295.393C459.555 293.076 461.747 292.469 464.548 292.185ZM466.205 309.43C469.22 307.766 471.275 306.348 472.165 302.874C472.639 301.022 472.565 299.034 471.434 297.426C470.275 295.78 468.191 294.805 466.229 294.598C465.586 294.531 464.938 294.515 464.291 294.501C461.745 295.656 459.872 296.506 458.774 299.21C457.971 301.188 457.889 303.531 458.875 305.461C459.692 307.063 461.455 308.654 463.238 309.065C464.2 309.286 465.222 309.351 466.205 309.43Z" fill="#070507"></path>
	<path d="M614.818 262.218C620.984 262.133 626.919 262.965 632.066 266.663C637.961 270.899 640.804 277.079 641.935 284.047C644.099 283.497 646.338 283.022 648.573 282.907C651.223 282.77 654.095 283.658 656.056 285.479C658.316 287.578 659.391 290.567 659.431 293.611Q659.435 294.323 659.367 295.033Q659.3 295.742 659.162 296.441Q659.024 297.14 658.817 297.822Q658.61 298.504 658.336 299.161Q658.062 299.819 657.724 300.446Q657.386 301.073 656.986 301.664Q656.587 302.254 656.131 302.801Q655.675 303.349 655.167 303.848C647.98 310.964 634.477 308.666 625.125 308.538C614.99 308.479 600.479 309.667 590.892 308.407C586.875 307.879 583.662 306.286 581.202 302.988C578.607 299.51 577.502 294.827 578.248 290.552C578.708 287.915 579.926 285.444 582.182 283.9C585.534 281.608 589.012 282.425 592.716 283.097C593.538 278.379 595.126 273.905 598.21 270.165C602.555 264.896 608.274 262.99 614.818 262.218ZM588.265 305.345C596.417 307.224 615.016 305.812 624.411 305.887C632.755 305.982 646.447 307.893 652.864 301.845C655.388 299.467 656.455 295.964 656.38 292.551C656.328 290.216 655.398 288.087 653.59 286.568C652.269 285.458 650.652 285.141 648.971 285.375C645.839 285.811 643.02 288.085 640.023 286.376C638.499 284.04 638.167 280.973 637.338 278.327C635.062 271.067 628.726 266.437 621.472 265.006C618.67 264.452 616.131 264.441 613.304 264.599C607.446 266.448 601.37 269.261 598.507 275.071C596.925 278.283 597.148 283.949 593.984 285.843C590.57 285.996 585.834 283.654 583.114 286.428C581.288 288.29 580.716 290.964 580.905 293.496C581.22 297.7 583.226 301.33 586.471 303.963Q587.354 304.673 588.265 305.345Z" fill="#070507"></path>
</svg>
