<svg height="1024" width="1024" xmlns:xlink="http://www.w3.org/1999/xlink" xmlns="http://www.w3.org/2000/svg">
	<path d="M502.453 194.685C512.228 193.481 522.982 195.157 531.986 199.116C545.967 205.263 557.667 216.983 563.111 231.323C569.414 247.927 567.066 263.056 559.967 278.851C576.58 280.668 594.659 284.024 606.376 297.041C610.619 301.756 614.105 308.181 615.157 314.472C617.012 325.561 614.89 340.834 614.292 352.338C612.524 386.36 609.511 420.287 608 454.326C611.741 442.761 613.86 430.607 616.92 418.825Q625.606 386.068 634.899 353.478C637.974 342.523 640.402 329.598 645.515 319.429C647.823 314.841 650.946 311.369 655.173 308.458C670.325 298.026 689.604 300.35 706.672 303.575C705.769 299.421 705.652 294.958 705.742 290.72Q705.763 289.317 705.854 287.917Q705.945 286.518 706.104 285.124Q706.264 283.73 706.492 282.346Q706.721 280.962 707.017 279.591Q707.313 278.219 707.677 276.865Q708.041 275.51 708.471 274.174Q708.901 272.839 709.397 271.527Q709.893 270.215 710.452 268.928Q711.012 267.642 711.635 266.385Q712.258 265.128 712.942 263.903Q713.626 262.678 714.369 261.489Q715.113 260.299 715.914 259.148Q716.716 257.996 717.573 256.886Q718.43 255.776 719.342 254.709Q720.253 253.642 721.215 252.622Q722.178 251.602 723.19 250.63C735.004 239.363 750.018 233.502 766.338 233.899C781.983 234.28 798.24 241.073 809.035 252.48Q810.02 253.533 810.952 254.633Q811.884 255.734 812.761 256.879Q813.638 258.024 814.457 259.21Q815.276 260.397 816.035 261.623Q816.795 262.849 817.493 264.11Q818.192 265.372 818.827 266.666Q819.462 267.961 820.033 269.285Q820.604 270.61 821.108 271.96Q821.613 273.311 822.05 274.685Q822.488 276.059 822.857 277.453Q823.226 278.847 823.526 280.258Q823.826 281.668 824.057 283.092Q824.287 284.515 824.446 285.948Q824.606 287.382 824.695 288.821Q824.784 290.26 824.802 291.702Q824.819 293.144 824.766 294.585Q824.724 296.037 824.61 297.486Q824.496 298.934 824.31 300.375Q824.124 301.816 823.868 303.246Q823.611 304.676 823.284 306.092Q822.956 307.507 822.559 308.905Q822.162 310.302 821.697 311.678Q821.231 313.055 820.698 314.406Q820.164 315.758 819.565 317.081Q818.965 318.404 818.301 319.696Q817.636 320.989 816.909 322.246Q816.181 323.504 815.392 324.724Q814.603 325.944 813.755 327.123Q812.907 328.303 812.001 329.439Q811.095 330.575 810.134 331.664Q809.173 332.754 808.16 333.795Q807.146 334.836 806.082 335.825L807.005 336.237C823.174 343.476 841.378 354.888 847.865 372.34C853.886 388.535 846.627 401.061 838.923 414.98C834.747 422.526 830.589 430.159 827.004 438.005C828.902 439.366 830.643 440.716 831.699 442.841C831.747 444.851 830.427 446.514 829.417 448.233C823.686 457.985 817.283 467.41 811.301 477.019Q796.934 499.962 783.491 523.458C778.633 531.811 773.226 540.112 769.122 548.861Q778.869 551.959 788.45 555.538Q798.031 559.117 807.423 563.166Q816.815 567.216 825.993 571.727Q835.172 576.239 844.116 581.2C871.5 596.332 904.504 620.209 913.359 651.555C917.961 667.844 915.477 685.057 907.119 699.683C888.248 732.708 849.259 753.505 815.273 767.666C807.451 770.926 798.793 774.981 790.565 777.005C788.634 777.48 786.675 777.799 784.87 776.761L785.011 775.925C788.116 773.014 810.61 765.322 816.205 762.953Q827.924 758.08 839.181 752.217C866.544 737.878 899.851 715.897 909.279 684.948C913.994 669.468 911.605 653.329 903.926 639.262C881.66 598.475 810.365 565.254 767.093 552.764C763.146 561.157 753.231 580.767 748.185 587.993C747.26 589.317 746.273 590.902 744.538 591.066C739.698 591.523 730.602 585.321 725.94 583.088C711.496 576.172 696.217 571.349 680.794 567.153C675.232 565.64 659.101 563.105 655.403 559.441C653.395 553.226 659.002 532.796 660.451 525.471C648.324 522.494 628.464 520.023 616.049 519.877C619.442 528.256 622.596 536.986 624.443 545.838C627.141 558.767 626.815 572.719 619.226 584.013C607.766 601.068 581.6 609.686 562.49 613.466C561.449 620.025 560.469 626.618 558.481 632.968C539.926 634.313 521.1 634.364 502.5 634.64C490.63 634.816 478.746 635.413 466.877 635.421C465.535 635.422 458.927 635.469 458.202 634.511C456.509 632.273 455.166 609.511 455.223 605.56L445.39 607.455C432.462 609.708 416.084 612.237 403.342 607.813C397.788 605.885 393.578 602.289 391.136 596.898C381.683 576.024 393.263 544.454 401.057 524.392C390.922 524.495 369.524 527.167 359.528 530.115C362.888 540.856 366.819 551.44 370.736 561.987C360.387 565.495 349.637 568.05 339.215 571.434Q304.564 582.602 271.395 597.611C262.812 584.499 256.823 569.715 248.243 556.632C205.406 572.866 146.338 595.418 122.421 637.316C113.772 652.468 110.149 668.77 114.962 685.815C124.019 717.886 154.162 739.461 181.926 754.744C184.527 756.175 186.955 757.886 189.584 759.289C204.629 767.322 220.772 774.415 236.762 780.325C240.983 781.885 270.175 791.631 270.921 792.179C272.054 793.012 271.943 793.5 271.962 794.763L271.215 795.436C267.591 795.762 261.944 793.186 258.43 792.063C229.658 782.865 201.163 771.178 175.162 755.723C147.773 739.443 118.931 717.859 110.827 685.334C106.306 667.191 110.406 649.548 119.887 633.746C140.22 599.855 183.681 577.572 219.31 563.368C228.098 559.865 237.188 556.025 246.376 553.708C240.32 538.737 188.289 451.131 188.684 446.41C190.233 443.137 194.251 441.833 197.329 440.306C190.794 427.319 176.766 402.853 174.431 389.018C173.57 383.915 173.995 378.603 175.406 373.634C179.558 359.016 189.859 351.533 202.022 343.7C207.284 340.311 212.525 336.898 218.007 333.872Q216.34 332.07 214.738 330.209C203.891 317.669 198.537 302.046 199.857 285.42Q199.978 283.936 200.172 282.459Q200.366 280.983 200.632 279.517Q200.898 278.052 201.235 276.601Q201.572 275.151 201.98 273.719Q202.388 272.286 202.865 270.876Q203.343 269.465 203.889 268.08Q204.435 266.694 205.048 265.337Q205.661 263.98 206.34 262.654Q207.019 261.329 207.762 260.038Q208.505 258.748 209.31 257.495Q210.116 256.242 210.981 255.03Q211.847 253.819 212.771 252.651Q213.695 251.483 214.675 250.361Q215.655 249.24 216.689 248.168Q217.722 247.096 218.807 246.076Q219.892 245.056 221.026 244.09Q222.219 243.104 223.458 242.177Q224.698 241.25 225.981 240.384Q227.264 239.519 228.588 238.717Q229.911 237.915 231.273 237.179Q232.634 236.442 234.03 235.773Q235.426 235.104 236.852 234.504Q238.279 233.904 239.733 233.374Q241.187 232.844 242.666 232.386Q244.144 231.928 245.643 231.542Q247.142 231.157 248.658 230.845Q250.174 230.533 251.703 230.295Q253.232 230.057 254.772 229.894Q256.311 229.732 257.856 229.644Q259.401 229.556 260.949 229.544Q262.497 229.532 264.043 229.596Q265.59 229.659 267.131 229.798Q268.607 229.927 270.075 230.128Q271.543 230.329 273 230.602Q274.456 230.875 275.897 231.22Q277.338 231.565 278.761 231.98Q280.183 232.396 281.583 232.881Q282.983 233.366 284.358 233.919Q285.732 234.473 287.078 235.093Q288.424 235.714 289.737 236.4Q291.05 237.086 292.328 237.836Q293.606 238.586 294.846 239.398Q296.085 240.211 297.283 241.083Q298.481 241.955 299.634 242.885Q300.788 243.816 301.894 244.802Q303 245.788 304.056 246.827Q305.112 247.866 306.116 248.957Q307.119 250.047 308.068 251.185C320.985 266.918 322.701 283.196 320.845 302.783C334.984 299.968 348.673 298.688 361.794 305.875Q363.103 306.586 364.354 307.394Q365.605 308.202 366.791 309.103Q367.977 310.003 369.092 310.991Q370.206 311.979 371.243 313.049Q372.279 314.118 373.231 315.264Q374.184 316.409 375.046 317.623Q375.909 318.837 376.677 320.113Q377.446 321.388 378.115 322.719C382.659 331.945 386.707 352.083 389.65 362.7C400.935 403.407 410.859 444.629 422.962 485.096L426.396 480.05C423.874 471.879 423.237 463.041 421.871 454.617L414.551 410.464L405.957 356.874C404.44 347.146 402.219 337.003 402.04 327.172C401.944 321.887 403.672 317.054 406.117 312.449C416.419 293.051 438.267 289.045 457.511 283.052Q455.968 280.613 454.689 278.026Q453.409 275.439 452.408 272.733Q451.406 270.026 450.693 267.229Q449.98 264.433 449.564 261.577Q449.34 260.164 449.187 258.741Q449.034 257.319 448.952 255.89Q448.87 254.462 448.859 253.031Q448.848 251.6 448.909 250.17Q448.97 248.741 449.102 247.316Q449.234 245.891 449.437 244.475Q449.64 243.058 449.913 241.654Q450.186 240.249 450.529 238.86Q450.872 237.471 451.284 236.101Q451.696 234.731 452.176 233.383Q452.656 232.035 453.202 230.712Q453.749 229.39 454.36 228.096Q454.972 226.803 455.648 225.542Q456.323 224.28 457.061 223.054Q457.798 221.828 458.596 220.64Q459.394 219.452 460.25 218.306C470.815 204.054 485.239 197.188 502.453 194.685ZM319.275 307.326C312.904 324.107 302.261 337.236 285.636 344.75Q284.242 345.38 282.818 345.939Q281.395 346.499 279.945 346.987Q278.495 347.475 277.023 347.891Q275.55 348.306 274.059 348.648Q272.568 348.99 271.062 349.257Q269.556 349.524 268.038 349.716Q266.52 349.908 264.995 350.024Q263.47 350.14 261.941 350.18Q260.411 350.22 258.882 350.184Q257.353 350.148 255.827 350.036Q254.301 349.924 252.783 349.736Q251.265 349.549 249.758 349.286Q248.251 349.023 246.759 348.685Q245.267 348.347 243.794 347.936Q242.32 347.524 240.869 347.04Q239.418 346.556 237.993 346Q233.501 344.274 229.271 341.977Q225.042 339.68 221.148 336.852C204.984 346.251 183.854 356.372 178.738 375.973Q178.293 377.625 178.05 379.319Q177.807 381.013 177.768 382.723Q177.73 384.434 177.897 386.137Q178.064 387.839 178.434 389.51C180.69 399.985 195.042 427.8 200.758 438.47C227.008 422.345 260.549 408.091 289.875 398.515C296.507 396.35 303.361 393.881 310.252 392.716C313.383 399.171 315.535 406.31 317.867 413.095L339.661 474.115C345.749 491.534 351.501 509.247 358.419 526.353C372.168 522.619 388.786 521.411 402.984 520.472C407.47 509.799 413.216 498.448 420.225 489.226L419.942 488.533C417.946 483.558 416.867 478.185 415.496 473.013L409.77 452.154L384.669 359.618C381.648 348.405 378.863 331.711 373.284 321.793C369.851 315.691 363.22 310.723 356.913 307.928C349.318 304.562 342.481 304.132 334.316 304.69Q326.77 305.861 319.275 307.326ZM456.541 542.005L459.379 564.147C464.92 563.656 470.433 563.117 475.944 562.344C480.546 561.698 485.328 560.587 489.97 560.628C491.869 560.644 494.338 560.748 495.874 562.02C498.432 564.139 498.732 568.905 498.749 572.017C498.754 573.124 498.725 574.229 498.702 575.336C498.67 576.847 498.921 577.474 499.552 578.818C500.435 580.702 500.299 583.039 499.519 584.934C496.449 592.383 486.052 596.681 479.098 599.276Q468.955 603.013 458.318 604.941Q460.002 618.409 461.14 631.934C467.379 631.764 473.635 631.493 479.875 631.473C505.112 631.021 530.533 630.851 555.736 629.571Q557.201 621.821 558.212 613.999C547.624 615.542 532.118 616.713 523.123 609.832C520.725 607.998 517.584 604.183 517.461 600.999C517.403 599.487 518.707 598.057 518.716 596.768C518.754 591.337 515.113 589.502 520.574 584.938C528.072 578.673 549.492 575.161 559.821 571.415C561.098 560.566 562.553 549.669 562.99 538.748C554.038 538.013 545.161 538.735 536.21 538.696C529.401 539.335 522.46 539.146 515.622 539.363Q495.385 540.022 475.156 540.91C469.022 541.192 462.602 541.115 456.541 542.005ZM557.823 281.89C546.565 296.227 534.165 306.585 515.428 308.841C499.606 310.746 483.019 306.745 470.497 296.779C466.608 293.684 462.704 289.949 459.899 285.819C459.759 285.891 459.62 285.964 459.479 286.034C439.937 295.68 415.703 294.487 407.132 319.514C405.953 322.959 405.523 326.312 405.785 329.936C406.226 336.04 407.541 342.247 408.509 348.291L413.984 382.362C419.012 413.66 423.603 445.104 429.443 476.262C441.046 461.981 454.285 447.783 469.996 438.001C464.73 437.228 458.629 436.633 455.097 432.116C451.692 427.761 452.146 422.351 451.514 417.207L451.065 416.796C444.794 411.151 437.75 408.598 437.145 398.951C436.463 388.088 445.004 382.022 448.526 372.852C452.283 363.069 450.326 352.566 457.965 344.203C459.836 342.154 462.116 340.394 464.517 339.01C470.268 336.544 474.884 336.236 481.052 336.601C486.286 329.35 494.348 325.823 502.962 324.383C512.978 322.708 523.848 324.248 532.206 330.276C540.738 336.43 546.328 346.547 549.912 356.213C551.502 360.502 552.805 365.198 555.205 369.122C559.284 375.789 565.747 377.839 567.015 386.175C567.637 390.258 567.207 394.331 566.843 398.417C566.949 398.592 567.052 398.769 567.159 398.943C572.458 407.564 585.507 409.477 582.868 422.573C582.18 425.986 580.194 428.836 577.196 430.624C574.226 432.397 570.367 432.885 567.04 431.927C565.406 431.457 563.787 430.747 562.258 430.005Q559.381 434.6 556.42 439.142C573.831 455.719 588.183 471.807 601.357 491.992C602.642 481.961 602.869 472.083 603.413 462.002C604.23 446.857 605.099 431.643 606.181 416.517Q608.589 384.708 610.595 352.871C611.315 341.507 612.927 329.278 611.873 317.948C611.328 312.086 608.961 306.65 605.366 302.018C593.707 286.995 575.091 285.174 557.823 281.89ZM802.628 338.859C789.799 348.421 772.714 353.348 756.761 351.087C741.132 348.873 727.172 341.062 717.716 328.363Q715.992 326.029 714.487 323.548Q712.983 321.067 711.711 318.458Q710.439 315.85 709.41 313.137Q708.381 310.424 707.604 307.628C699.241 305.809 689.615 304.189 681.014 304.71C669.124 305.736 658.5 308.353 650.644 317.969C643.622 326.565 613.526 448.59 609.301 467.845C607.224 477.311 605.356 487.384 604.341 497.023Q609.984 506.059 614.058 515.903C628.578 515.884 646.823 518.812 661.253 521.649Q671.363 481.478 685.512 442.546C690.812 427.619 696.166 412.538 703.059 398.25C703.888 396.599 705.072 393.432 706.96 392.788C710.334 391.636 719.441 395.436 723.04 396.556Q748.815 404.513 773.921 414.378Q799.028 424.244 823.324 435.964C829.003 421.267 843.978 403.155 846.055 388.246C846.835 382.647 845.776 377.116 843.516 371.985C836.131 355.215 818.528 345.971 802.628 338.859ZM502.971 197.846Q501.645 197.966 500.326 198.15Q499.007 198.334 497.699 198.583Q496.391 198.832 495.096 199.144Q493.802 199.457 492.524 199.833Q491.247 200.208 489.989 200.646Q488.731 201.084 487.497 201.582Q486.262 202.081 485.053 202.64Q483.844 203.198 482.665 203.816Q481.485 204.433 480.336 205.107Q479.188 205.781 478.074 206.511Q476.96 207.241 475.883 208.024Q474.806 208.807 473.769 209.642Q472.732 210.478 471.737 211.363Q470.742 212.247 469.792 213.18Q468.841 214.113 467.937 215.091Q467.034 216.069 466.179 217.09Q465.324 218.111 464.521 219.173Q463.717 220.235 462.966 221.335Q462.216 222.435 461.52 223.57Q460.824 224.705 460.184 225.873Q459.545 227.041 458.964 228.239Q458.382 229.437 457.86 230.662Q457.338 231.887 456.876 233.136Q456.415 234.385 456.015 235.656Q455.615 236.926 455.278 238.214Q454.941 239.502 454.668 240.806Q454.394 242.109 454.185 243.424Q453.975 244.739 453.831 246.063Q453.686 247.387 453.606 248.716Q453.527 250.045 453.512 251.377Q453.498 252.708 453.548 254.039Q453.599 255.369 453.715 256.696Q453.831 258.023 454.012 259.342Q454.192 260.661 454.437 261.97Q454.682 263.279 454.991 264.574Q455.3 265.87 455.672 267.148Q456.044 268.427 456.478 269.686Q456.913 270.945 457.408 272.181Q457.903 273.417 458.458 274.627Q459.014 275.837 459.628 277.019Q460.241 278.201 460.912 279.351Q461.583 280.501 462.31 281.617Q463.036 282.733 463.817 283.812Q464.597 284.891 465.429 285.931Q466.262 286.97 467.144 287.968Q468.026 288.965 468.956 289.919Q469.886 290.872 470.862 291.778Q471.837 292.684 472.856 293.542Q473.875 294.4 474.934 295.206Q475.994 296.013 477.091 296.767Q478.189 297.52 479.323 298.219Q480.456 298.918 481.622 299.561Q482.789 300.204 483.985 300.789Q485.181 301.374 486.405 301.899Q487.628 302.425 488.876 302.89Q490.124 303.355 491.393 303.758Q492.662 304.161 493.95 304.502Q495.237 304.842 496.539 305.12Q497.842 305.397 499.156 305.61Q500.471 305.823 501.794 305.971Q503.117 306.12 504.446 306.203Q505.775 306.287 507.107 306.305Q508.438 306.323 509.769 306.276Q511.1 306.229 512.427 306.117Q513.759 306.004 515.083 305.827Q516.408 305.649 517.722 305.406Q519.036 305.163 520.337 304.856Q521.637 304.549 522.921 304.179Q524.205 303.808 525.469 303.375Q526.734 302.941 527.975 302.446Q529.217 301.952 530.432 301.396Q531.648 300.841 532.834 300.227Q534.021 299.612 535.176 298.94Q536.332 298.268 537.452 297.54Q538.573 296.812 539.657 296.03Q540.74 295.248 541.784 294.413Q542.828 293.579 543.829 292.694Q544.831 291.809 545.788 290.876Q546.745 289.943 547.655 288.964Q548.564 287.986 549.425 286.963Q550.286 285.941 551.095 284.877Q551.904 283.814 552.66 282.712Q553.416 281.61 554.117 280.472Q554.818 279.334 555.463 278.163Q556.107 276.992 556.693 275.791Q557.279 274.59 557.805 273.362Q558.331 272.133 558.796 270.88Q559.261 269.627 559.664 268.353Q560.067 267.079 560.407 265.786Q560.747 264.494 561.022 263.186Q561.298 261.879 561.51 260.559Q561.721 259.24 561.867 257.911Q562.013 256.583 562.094 255.249Q562.175 253.915 562.19 252.579Q562.205 251.242 562.154 249.907Q562.103 248.571 561.987 247.24Q561.871 245.909 561.689 244.585Q561.508 243.261 561.261 241.947Q561.015 240.634 560.704 239.334Q560.393 238.034 560.019 236.751Q559.645 235.468 559.208 234.205Q558.771 232.942 558.273 231.702Q557.774 230.462 557.216 229.248Q556.657 228.034 556.039 226.849Q555.421 225.664 554.746 224.511Q554.071 223.358 553.34 222.239Q552.609 221.12 551.823 220.039Q551.038 218.958 550.201 217.916Q549.363 216.875 548.476 215.876Q547.588 214.876 546.652 213.922Q545.717 212.968 544.735 212.061Q543.754 211.154 542.729 210.296Q541.704 209.438 540.639 208.632Q539.573 207.826 538.469 207.073Q537.365 206.32 536.225 205.622Q535.085 204.924 533.912 204.283Q532.74 203.642 531.537 203.06Q530.334 202.477 529.104 201.955Q527.874 201.432 526.62 200.971Q525.366 200.509 524.091 200.11Q522.815 199.71 521.522 199.374Q520.228 199.038 518.92 198.766Q517.612 198.493 516.291 198.286Q514.971 198.078 513.642 197.936Q512.314 197.793 510.979 197.717Q509.645 197.64 508.309 197.628Q506.973 197.617 505.637 197.672Q504.302 197.726 502.971 197.846ZM257.905 233.184Q256.51 233.252 255.12 233.389Q253.73 233.526 252.348 233.731Q250.967 233.935 249.597 234.208Q248.227 234.481 246.872 234.82Q245.517 235.16 244.181 235.565Q242.844 235.971 241.529 236.442Q240.214 236.913 238.924 237.448Q237.634 237.983 236.372 238.581Q235.109 239.178 233.878 239.837Q232.647 240.497 231.449 241.215Q230.251 241.934 229.091 242.711Q227.93 243.488 226.809 244.321Q225.687 245.154 224.609 246.041Q223.53 246.928 222.496 247.866Q221.462 248.805 220.475 249.794Q219.488 250.783 218.552 251.819Q217.615 252.855 216.73 253.935Q215.845 255.016 215.015 256.139Q214.184 257.262 213.41 258.424Q212.635 259.587 211.919 260.786Q211.203 261.985 210.546 263.218Q209.89 264.451 209.295 265.714Q208.699 266.978 208.167 268.269Q207.635 269.56 207.167 270.876Q206.698 272.192 206.296 273.529Q205.893 274.867 205.556 276.222Q205.219 277.578 204.949 278.948Q204.68 280.319 204.478 281.701Q204.276 283.083 204.142 284.473Q204.008 285.863 203.943 287.259Q203.877 288.654 203.881 290.05Q203.884 291.447 203.956 292.842Q204.028 294.237 204.168 295.627Q204.309 297.016 204.517 298.397Q204.726 299.778 205.002 301.147Q205.278 302.517 205.621 303.871Q205.965 305.224 206.374 306.56Q206.783 307.895 207.258 309.209Q207.732 310.523 208.27 311.811Q208.809 313.1 209.41 314.361Q210.011 315.622 210.673 316.851Q211.336 318.081 212.058 319.277Q212.78 320.472 213.56 321.631Q214.34 322.79 215.175 323.909Q216.011 325.028 216.901 326.104Q217.791 327.181 218.733 328.212Q219.675 329.244 220.666 330.228Q221.657 331.212 222.696 332.146Q223.734 333.08 224.817 333.962Q225.9 334.844 227.025 335.671Q228.151 336.499 229.315 337.27Q230.48 338.041 231.68 338.755Q232.881 339.468 234.116 340.121Q235.351 340.774 236.616 341.366Q237.881 341.958 239.174 342.487Q240.466 343.015 241.784 343.48Q243.101 343.945 244.439 344.344Q245.778 344.743 247.134 345.077Q248.49 345.41 249.862 345.676Q251.233 345.942 252.615 346.14Q253.998 346.338 255.389 346.468Q256.779 346.599 258.175 346.66Q259.57 346.722 260.967 346.715Q262.363 346.708 263.758 346.632Q265.148 346.557 266.533 346.413Q267.917 346.27 269.293 346.059Q270.669 345.848 272.033 345.569Q273.397 345.291 274.745 344.946Q276.094 344.602 277.424 344.191Q278.754 343.781 280.063 343.306Q281.371 342.831 282.655 342.292Q283.938 341.754 285.194 341.153Q286.45 340.552 287.674 339.891Q288.899 339.229 290.09 338.509Q291.281 337.788 292.435 337.01Q293.589 336.231 294.704 335.398Q295.818 334.564 296.891 333.676Q297.963 332.789 298.991 331.85Q300.018 330.911 300.999 329.923Q301.979 328.935 302.91 327.9Q303.841 326.865 304.72 325.786Q305.599 324.706 306.424 323.585Q307.249 322.464 308.019 321.304Q308.788 320.144 309.499 318.948Q310.211 317.751 310.863 316.521Q311.515 315.292 312.106 314.031Q312.697 312.771 313.225 311.483Q313.754 310.196 314.219 308.883Q314.684 307.571 315.084 306.238Q315.484 304.905 315.818 303.554Q316.152 302.202 316.42 300.836Q316.687 299.47 316.888 298.093Q317.088 296.715 317.221 295.33Q317.354 293.944 317.418 292.554Q317.483 291.163 317.479 289.771Q317.476 288.379 317.404 286.989Q317.332 285.599 317.193 284.214Q317.053 282.829 316.845 281.453Q316.638 280.076 316.363 278.711Q316.089 277.347 315.748 275.997Q315.407 274.648 315 273.317Q314.593 271.985 314.122 270.676Q313.65 269.366 313.115 268.081Q312.58 266.796 311.983 265.539Q311.385 264.281 310.727 263.055Q310.069 261.828 309.351 260.636Q308.633 259.443 307.858 258.287Q307.083 257.131 306.252 256.014Q305.422 254.897 304.537 253.822Q303.652 252.747 302.716 251.717Q301.78 250.687 300.795 249.704Q299.809 248.721 298.777 247.787Q297.744 246.854 296.667 245.972Q295.591 245.09 294.472 244.261Q293.353 243.433 292.195 242.661Q291.037 241.889 289.842 241.174Q288.648 240.459 287.42 239.804Q286.192 239.149 284.933 238.554Q283.674 237.96 282.388 237.428Q281.102 236.896 279.791 236.428Q278.48 235.959 277.148 235.556Q275.816 235.152 274.465 234.814Q273.115 234.477 271.75 234.205Q270.384 233.934 269.007 233.73Q267.63 233.526 266.245 233.389Q264.86 233.253 263.47 233.185Q262.079 233.116 260.687 233.116Q259.295 233.116 257.905 233.184ZM503.72 528.66C494.539 530.001 486.282 531.705 478.511 536.994C489.552 536.709 500.583 536.052 511.624 535.819C520.146 535.316 528.697 535.179 537.231 534.949C527.024 528.313 515.563 527.826 503.72 528.66ZM467.434 394.314C464.914 394.195 462.557 393.986 460.608 395.865C459.804 396.641 459.17 397.759 459.095 398.886C458.951 401.056 460.511 403.091 462.023 404.466C465.155 407.311 469.045 405.335 470.831 407.37C472.865 409.687 473.725 413.34 475.536 415.93C484.663 428.984 494.938 433.021 510.414 432.475C520.128 430.577 528.312 427.236 534.016 418.736C538.047 412.729 538.978 406.85 539.041 399.764C542.92 399.09 545.709 398.79 548.187 395.38C549.275 393.883 549.844 391.988 549.488 390.145C548.97 387.47 546.795 385.352 544.581 383.943C540.856 381.572 535.726 383.08 531.585 381.968C522.489 379.527 503.897 370.91 496.212 365.396C495.178 371.337 492.911 375.801 487.847 379.371C482.368 383.233 476.332 384.233 469.796 384.478C468.561 387.781 467.975 390.84 467.434 394.314ZM762.627 237.397Q761.267 237.461 759.912 237.592Q758.557 237.723 757.21 237.92Q755.863 238.117 754.527 238.38Q753.191 238.643 751.87 238.971Q750.549 239.299 749.245 239.691Q747.941 240.084 746.659 240.54Q745.376 240.996 744.117 241.514Q742.858 242.032 741.626 242.612Q740.394 243.191 739.192 243.83Q737.99 244.469 736.821 245.167Q735.651 245.864 734.518 246.618Q733.384 247.372 732.289 248.18Q731.193 248.989 730.139 249.85Q729.085 250.711 728.074 251.623Q727.063 252.535 726.098 253.496Q725.133 254.456 724.217 255.463Q723.3 256.469 722.434 257.519Q721.568 258.57 720.754 259.661Q719.94 260.753 719.181 261.883Q718.422 263.013 717.719 264.179Q717.017 265.345 716.372 266.544Q715.727 267.743 715.142 268.972Q714.557 270.202 714.032 271.458Q713.508 272.714 713.046 273.995Q712.584 275.276 712.186 276.577Q711.787 277.879 711.453 279.199Q711.119 280.519 710.85 281.853Q710.58 283.188 710.377 284.534Q710.174 285.88 710.037 287.235Q709.899 288.589 709.829 289.949Q709.758 291.308 709.755 292.67Q709.751 294.031 709.814 295.391Q709.877 296.751 710.007 298.106Q710.136 299.461 710.332 300.809Q710.528 302.156 710.79 303.492Q711.052 304.828 711.379 306.15Q711.706 307.471 712.097 308.775Q712.489 310.079 712.944 311.362Q713.398 312.645 713.916 313.905Q714.433 315.164 715.011 316.396Q715.59 317.629 716.228 318.831Q716.866 320.034 717.562 321.204Q718.259 322.374 719.012 323.508Q719.765 324.642 720.572 325.738Q721.38 326.834 722.24 327.889Q723.101 328.945 724.012 329.956Q724.923 330.968 725.883 331.933Q726.842 332.899 727.848 333.817Q728.854 334.734 729.904 335.601Q730.953 336.468 732.044 337.283Q733.135 338.097 734.264 338.857Q735.394 339.617 736.559 340.321Q737.725 341.025 738.923 341.671Q740.122 342.316 741.351 342.903Q742.579 343.489 743.835 344.014Q745.091 344.539 746.372 345.002Q747.652 345.465 748.953 345.865Q750.255 346.264 751.574 346.6Q752.894 346.935 754.228 347.205Q755.562 347.476 756.908 347.68Q758.254 347.885 759.609 348.023Q760.963 348.161 762.323 348.233Q763.682 348.304 765.044 348.309Q766.405 348.314 767.765 348.252Q769.126 348.19 770.483 348.061Q771.84 347.933 773.189 347.737Q774.538 347.542 775.875 347.281Q777.213 347.02 778.536 346.693Q779.859 346.367 781.165 345.976Q782.47 345.585 783.755 345.13Q785.04 344.675 786.301 344.158Q787.562 343.641 788.796 343.062Q790.03 342.484 791.234 341.845Q792.438 341.207 793.609 340.51Q794.78 339.814 795.916 339.06Q797.052 338.307 798.149 337.499Q799.246 336.69 800.303 335.829Q801.359 334.968 802.372 334.056Q803.385 333.144 804.352 332.184Q805.318 331.223 806.237 330.216Q807.155 329.209 808.023 328.158Q808.891 327.108 809.706 326.015Q810.522 324.923 811.282 323.793Q812.043 322.662 812.747 321.495Q813.451 320.328 814.098 319.128Q814.744 317.928 815.33 316.698Q815.917 315.468 816.442 314.21Q816.967 312.953 817.43 311.671Q817.893 310.389 818.292 309.086Q818.692 307.783 819.027 306.462Q819.362 305.141 819.632 303.805Q819.902 302.469 820.105 301.122Q820.309 299.774 820.447 298.418Q820.584 297.062 820.655 295.701Q820.726 294.34 820.729 292.977Q820.733 291.614 820.67 290.253Q820.607 288.892 820.477 287.535Q820.347 286.178 820.151 284.83Q819.954 283.481 819.692 282.144Q819.43 280.806 819.102 279.483Q818.775 278.16 818.382 276.855Q817.99 275.55 817.534 274.266Q817.079 272.981 816.56 271.721Q816.042 270.46 815.463 269.227Q814.883 267.993 814.244 266.79Q813.604 265.586 812.907 264.416Q812.209 263.245 811.455 262.11Q810.7 260.975 809.891 259.878Q809.082 258.782 808.22 257.726Q807.358 256.67 806.445 255.658Q805.532 254.646 804.571 253.68Q803.609 252.714 802.602 251.797Q801.594 250.879 800.543 250.012Q799.491 249.145 798.398 248.331Q797.306 247.516 796.174 246.757Q795.043 245.997 793.875 245.294Q792.708 244.59 791.507 243.945Q790.307 243.3 789.076 242.715Q787.846 242.129 786.588 241.605Q785.33 241.081 784.047 240.619Q782.765 240.157 781.462 239.759Q780.159 239.36 778.837 239.026Q777.516 238.693 776.18 238.424Q774.844 238.155 773.496 237.953Q772.148 237.75 770.792 237.614Q769.436 237.477 768.075 237.408Q766.714 237.338 765.351 237.335Q763.988 237.333 762.627 237.397ZM530.873 428.494C519.525 435.225 509.017 438.33 495.859 434.978C493.181 434.296 490.595 433.336 488.007 432.374C487.916 440.891 487.204 449.936 492.246 457.301C496.011 461.37 500.74 464.035 506.39 464.193C512.241 464.358 518.135 461.971 522.33 457.913C529.349 451.124 531.053 439.863 531.004 430.501C531.001 429.817 530.943 429.174 530.873 428.494ZM534.752 429.599C534.267 440.731 533.449 453.216 524.73 461.334C520.207 465.545 515.243 466.784 509.314 467.473C509.943 472.68 511.208 482.536 507.422 486.784C506.514 487.803 505.821 488.011 504.521 488.265C502.921 487.83 502.015 487.12 501.236 485.675C498.986 481.502 499.911 475.394 501.423 471.074C501.836 469.894 502.323 468.779 502.893 467.67C496.699 466.025 491.724 464.181 488.314 458.322C484.091 451.066 484.454 442.142 484.675 434.048C456.88 446.32 429.811 478.061 415.042 504.304C409.676 513.839 405.215 524.147 401.265 534.335C394.789 551.04 386.982 577.877 394.719 594.968C396.781 599.522 400.253 602.683 404.962 604.338C423.159 610.736 469.286 600.103 486.668 591.358C491.499 588.927 493.732 586.693 495.802 581.746L495.545 581.134C490.785 582.522 478.909 589.502 474.689 588.369C473.976 587.362 474.009 587.318 474.061 586.076C478.072 580.988 490.884 581.932 495.487 573.995L495.124 573.049C489.154 573.057 475.764 581.444 470.693 577.819C471.754 575.825 473.133 575.111 475.198 574.437C479.899 572.901 491.078 572.058 493.888 567.335C493.978 567.183 494.032 567.012 494.105 566.851C493.408 565.543 493.237 565.26 491.795 564.859C486.571 563.408 478.055 566.58 472.56 567.208C455.766 569.13 437.993 567.557 421.582 572.155C418.833 572.926 413.781 575.699 411.123 574.476C410.655 573.357 410.582 573.415 411.009 572.295C417.307 567.369 432.307 566.167 440.191 565.599C438.617 556.622 435.543 522.929 440.124 515.75C440.79 514.707 441.075 514.735 442.211 514.466L443.936 515.153C440.213 532.005 441.678 548.336 443.228 565.327C447.368 564.955 451.584 564.401 455.74 564.404C454.526 558.786 451.863 543.928 453.336 538.842C459.252 535.797 468.209 539.132 474.53 536.825C477.471 535.751 480.238 531.519 483.296 529.875C494.923 523.623 517.565 523.16 529.965 527.045C534.673 528.52 538.644 530.623 541.357 534.878C545.909 534.852 562.962 533.91 565.689 536.282C566.941 537.372 566.469 543.035 566.338 544.717C565.696 552.996 565.378 562.082 563.569 570.197C568.701 567.886 573.882 565.619 578.673 562.643C582.212 560.445 585.538 557.553 589.19 555.614C590.22 555.068 590.967 554.924 592.104 555.135C592.577 556.04 592.691 555.794 592.407 556.643C590.67 561.826 573.478 570.235 568.441 572.352Q560.645 575.575 552.578 578.041C545.994 580.066 524.845 584.137 521.926 589.531L522.092 590.095C527.163 591.283 538.8 586.956 542.463 590.777C542.071 591.809 541.758 591.854 540.784 592.301C535.746 594.611 526.379 592.424 522.562 596.307C525.807 598.852 533.65 599.165 537.745 599.169C538.672 599.17 540.756 598.815 541.499 599.042C542.596 599.376 542.413 599.834 542.621 600.733C542.132 602.071 541.999 602.284 540.912 603.201C534.361 604.17 527.974 602.504 521.647 600.947C524.633 605.896 528.271 608.107 533.964 609.479C554.36 614.396 583.97 605.518 601.357 594.806C610.769 589.008 618.408 581.215 620.942 570.185C626.041 547.988 611.034 513.906 599.055 494.951C585.566 473.608 557.848 439.779 534.752 429.599Z"></path>
	<path d="M562.378 479.628C562.913 479.817 563.087 479.849 563.547 480.106C567.548 482.343 577.926 499.483 580.053 503.774Q581.387 506.408 582.409 509.179Q583.431 511.949 584.128 514.818C586.186 523.623 585.478 533.835 580.604 541.63C580.214 541.432 579.358 541.021 579.039 540.75C578.858 540.598 578.736 540.387 578.605 540.19C578.109 539.443 578.705 537.608 578.883 536.774C580.882 527.416 582.621 524.752 579.952 514.824C578.337 508.815 575.523 503.509 572.315 498.206C570.46 495.141 561.456 484.48 561.147 482.02C561.055 481.291 561.986 480.242 562.378 479.628Z"></path>
	<path d="M497.996 409.892C500.856 410.563 503.913 412.113 506.814 412.409C510.201 412.756 513.865 410.147 517.06 411.673C517.266 413.758 516.183 415.188 515.036 416.852C512.154 418.952 509.562 420.162 505.913 419.872C503.486 419.678 501.185 418.818 499.665 416.838C498.053 414.738 497.696 412.456 497.996 409.892Z"></path>
	<path d="M504.564 393.078L505.708 393.573C506.123 394.089 508.287 405.206 508.31 406.469C508.335 407.787 507.403 408.285 506.537 409.1C505.852 408.581 505.148 408.049 504.552 407.427C502.414 405.198 501.675 400.662 501.968 397.691C502.193 395.406 502.773 394.498 504.564 393.078Z"></path>
	<path d="M480.76 388.391C481.546 388.347 482.497 388.235 483.269 388.374C484.541 388.602 485.529 389.296 486.159 390.432C487.416 392.693 486.385 395.64 485.603 397.856C485.008 397.888 484.116 397.999 483.511 397.867C482.199 397.581 481.303 396.84 480.621 395.704C479.3 393.504 479.99 390.62 480.76 388.391Z"></path>
	<path d="M517.697 388.244C518.789 388.34 519.692 388.384 520.677 388.933C521.762 389.536 522.603 390.552 522.864 391.781C523.336 394.002 522.332 395.803 521.237 397.641C520.141 397.565 518.907 397.55 517.939 396.97C516.912 396.354 516.166 395.181 515.987 394.008C515.647 391.781 516.603 390.091 517.697 388.244Z"></path>
	<path d="M493.656 382.502C494.571 382.506 495.608 382.456 496.503 382.648C497.806 382.929 498.307 383.578 498.946 384.653C498.935 386.193 498.336 387.004 497.532 388.242C496.554 388.163 495.453 388.132 494.509 387.863C493.275 387.512 492.737 386.832 492.129 385.784C492.362 384.107 492.66 383.805 493.656 382.502Z"></path>
	<path d="M519.08 380.089Q519.214 380.069 519.349 380.061Q519.485 380.053 519.62 380.058Q519.756 380.064 519.89 380.082Q520.025 380.1 520.157 380.13Q520.289 380.161 520.417 380.204Q520.546 380.247 520.67 380.302Q520.794 380.357 520.912 380.424Q521.03 380.49 521.141 380.568Q521.252 380.645 521.356 380.733Q521.459 380.82 521.554 380.918Q521.649 381.015 521.734 381.12Q521.819 381.226 521.893 381.339Q521.968 381.452 522.031 381.572Q522.095 381.692 522.147 381.817Q522.199 381.942 522.239 382.072Q522.279 382.201 522.306 382.334Q522.333 382.467 522.348 382.602Q522.363 382.736 522.365 382.872Q522.366 383.008 522.355 383.143Q522.344 383.278 522.321 383.411Q522.297 383.545 522.26 383.675Q522.224 383.806 522.176 383.933Q522.127 384.059 522.067 384.181Q522.006 384.302 521.935 384.417Q521.863 384.532 521.781 384.64Q521.699 384.748 521.607 384.848Q521.515 384.947 521.414 385.038Q521.313 385.128 521.203 385.208Q521.094 385.289 520.978 385.358Q520.862 385.428 520.739 385.486Q520.617 385.545 520.49 385.591Q520.362 385.638 520.231 385.672Q520.044 385.721 519.852 385.744Q519.66 385.767 519.467 385.764Q519.274 385.761 519.083 385.732Q518.891 385.703 518.706 385.648Q518.521 385.594 518.344 385.515Q518.168 385.436 518.004 385.334Q517.84 385.232 517.691 385.108Q517.542 384.985 517.411 384.843Q517.28 384.701 517.17 384.542Q517.059 384.384 516.971 384.212Q516.883 384.04 516.819 383.858Q516.755 383.675 516.716 383.486Q516.677 383.297 516.664 383.104Q516.65 382.911 516.663 382.719Q516.676 382.526 516.715 382.337Q516.754 382.147 516.818 381.965Q516.882 381.783 516.97 381.611Q517.058 381.439 517.168 381.28Q517.279 381.121 517.409 380.979Q517.54 380.837 517.689 380.713Q517.838 380.59 518.002 380.488Q518.166 380.386 518.342 380.307Q518.518 380.227 518.704 380.173Q518.889 380.118 519.08 380.089Z"></path>
	<path d="M507.855 731.739C531.354 730.647 568.363 736.089 586.703 751.279C592.21 755.84 596.264 761.992 596.841 769.27Q596.886 769.896 596.9 770.522Q596.913 771.149 596.894 771.776Q596.876 772.403 596.825 773.028Q596.775 773.653 596.692 774.275Q596.61 774.896 596.496 775.513Q596.383 776.13 596.238 776.74Q596.093 777.35 595.917 777.952Q595.741 778.554 595.535 779.146Q595.328 779.738 595.092 780.319Q594.856 780.9 594.591 781.468Q594.325 782.036 594.031 782.59Q593.737 783.144 593.416 783.682Q593.094 784.22 592.745 784.741Q592.396 785.263 592.021 785.765Q591.647 786.268 591.247 786.751Q590.847 787.234 590.423 787.696C574.238 805.586 540.863 808.976 518.049 810.031C492.624 810.61 455.656 808.821 435.615 792.019C430.386 787.635 427.267 781.902 426.841 775.049C426.367 767.43 428.516 760.254 433.757 754.562C449.593 737.359 485.54 732.791 507.855 731.739ZM436.674 787.455C455.769 804.739 495.819 807.12 520.965 805.843C541.497 804.8 574.189 800.023 588.468 784.004C589.576 782.762 591.151 780.805 591.201 779.082C586.817 782.42 582.476 785.396 577.457 787.706C551.867 799.484 513.401 801.585 485.775 797.919Q476.152 796.592 466.696 794.371Q457.239 792.15 448.032 789.055C445.559 788.202 434.878 782.962 434.118 782.938C433.918 784.047 434.211 784.715 434.88 785.61C435.382 786.282 436.065 786.879 436.674 787.455Z"></path>
	<path d="M760.365 677.241C760.486 677.224 760.606 677.197 760.728 677.19C785.064 675.782 822.575 682.739 840.775 699.106C845.687 703.524 850.065 709.304 850.287 716.167C850.491 722.481 847.293 728.411 842.959 732.812C826.553 749.474 793.302 754.987 770.475 755.05C743.267 755.09 709.618 755.683 688.024 736.479C683.009 732.018 679.087 726.557 678.839 719.604C678.575 712.177 682.388 705.521 687.342 700.269C704.004 682.601 737.036 677.93 760.365 677.241ZM844.528 724.297Q845.664 722.04 846.757 719.762C843.163 724.041 839.488 727.613 834.71 730.558C820.8 739.134 798.015 743.328 781.773 744.728C753.925 747.128 713.237 745.504 691.17 726.972C687.839 724.175 685.293 721.041 682.975 717.368C682.706 723.114 684.317 727.144 688.294 731.378C703.425 747.492 733.391 751.206 754.499 751.489C780.29 751.835 819.912 749.705 839.304 730.871Q840.82 729.406 842.131 727.755Q843.443 726.105 844.528 724.297Z"></path>
	<path d="M252.337 678.24C277.506 677.191 315.057 682.432 334.338 699.156C339.604 703.724 343.825 709.592 344.15 716.798C344.452 723.466 341.748 729.515 337.202 734.29C321.529 750.752 286.69 754.1 264.875 754.559C240.193 755.231 201.253 751.861 182.001 735.28C176.853 730.847 173.449 725.213 173.042 718.318C172.672 712.064 175.044 706.567 179.292 702.063C196.371 683.958 228.568 679.094 252.337 678.24ZM337.939 727.382L340.577 721.464C328.186 736.837 306.469 740.936 287.755 742.957C254.694 746.528 207.213 744.643 180.484 723.126C179.484 722.32 178.548 721.402 177.421 720.785C179.588 728.58 185.113 733.854 191.984 737.764C220.18 753.81 275.754 753.983 306.574 745.367C317.55 742.298 331.521 737.556 337.939 727.382Z"></path>
	<path d="M287.699 797.869C295.614 798.21 307.851 802.74 316.015 804.544Q342.328 810.2 368.962 814.078C416.446 820.775 465.755 824.932 513.695 824.442Q561.333 823.554 608.705 818.45C637.932 815.523 667.36 812.034 696.146 806.091C701.286 805.03 716.919 800.559 720.719 802.509C721.343 803.801 721.299 803.721 720.864 805.096C716.012 806.874 710.399 807.658 705.329 808.67Q686.852 812.275 668.253 815.183Q653.685 817.542 639.054 819.467Q624.423 821.392 609.741 822.883Q595.06 824.373 580.34 825.427Q565.62 826.481 550.876 827.098Q536.132 827.714 521.375 827.893Q506.619 828.072 491.864 827.813Q477.109 827.554 462.368 826.858Q447.628 826.161 432.914 825.027C404.533 822.89 375.818 819.799 347.825 814.593C338.745 812.905 290.082 804.198 287.206 800.004L287.699 797.869Z"></path>
</svg>
